<svg xmlns="http://www.w3.org/2000/svg" xmlns:xlink="http://www.w3.org/1999/xlink" width="450" zoomAndPan="magnify" viewBox="0 0 337.5 97.5" height="130" preserveAspectRatio="xMidYMid meet" version="1.0"><defs><g/><clipPath id="e0ce329897"><path d="M 1.15625 19.097656 L 70 19.097656 L 70 78.660156 L 1.15625 78.660156 Z M 1.15625 19.097656 " clip-rule="nonzero"/></clipPath><clipPath id="388fceeab9"><path d="M 1.15625 47.175781 L 1.15625 50.496094 C 1.15625 66.003906 13.730469 78.574219 29.238281 78.574219 L 41.804688 78.574219 C 57.3125 78.574219 69.882812 66.003906 69.882812 50.496094 L 69.882812 47.175781 C 69.882812 31.667969 57.3125 19.097656 41.804688 19.097656 L 29.238281 19.097656 C 13.730469 19.097656 1.15625 31.667969 1.15625 47.175781 Z M 1.15625 47.175781 " clip-rule="nonzero"/></clipPath></defs><g clip-path="url(#e0ce329897)"><g clip-path="url(#388fceeab9)"><path fill="#5271ff" d="M 19.765625 27.226562 L 23.066406 32.628906 L 13.761719 48.832031 L 19.164062 58.4375 L 23.664062 66.539062 L 24.566406 67.738281 L 27.566406 73.140625 L 21.566406 73.140625 L 14.363281 61.136719 L 7.460938 48.832031 Z M 50.972656 70.441406 L 47.972656 65.039062 L 57.273438 48.832031 L 51.875 39.53125 L 47.070312 31.128906 L 46.472656 29.929688 L 43.171875 24.527344 L 49.472656 24.527344 L 56.675781 36.832031 L 63.578125 48.832031 Z M 30.867188 78.542969 L 37.167969 78.542969 L 33.867188 73.140625 L 30.867188 67.738281 L 27.566406 62.339844 L 23.664062 55.734375 L 19.765625 48.832031 L 26.066406 38.03125 L 29.367188 43.429688 L 37.167969 56.9375 L 40.167969 62.339844 L 43.171875 67.738281 L 46.472656 73.140625 L 49.472656 78.542969 L 52.773438 78.542969 L 53.375 77.34375 L 54.273438 75.84375 L 61.175781 63.839844 L 69.878906 48.832031 L 61.175781 34.128906 L 52.773438 19.125 L 33.867188 19.125 L 37.167969 24.527344 L 40.167969 29.929688 L 43.171875 35.332031 L 47.070312 42.234375 L 50.972656 48.832031 L 44.972656 59.636719 L 41.671875 54.234375 L 33.867188 40.734375 L 30.867188 35.332031 L 27.566406 29.929688 L 21.566406 19.125 L 18.265625 19.125 L 17.664062 20.324219 L 16.761719 21.824219 L 9.863281 34.128906 L 1.15625 48.832031 L 9.863281 63.839844 L 18.265625 78.542969 Z M 30.867188 78.542969 " fill-opacity="1" fill-rule="evenodd"/></g></g><g fill="#57de43" fill-opacity="1"><g transform="translate(84.571752, 51.045429)"><g><path d="M 51.484375 -22.3125 C 51.484375 -23.457031 51.109375 -24.40625 50.359375 -25.15625 C 49.609375 -25.90625 48.660156 -26.28125 47.515625 -26.28125 L 12.78125 -26.28125 C 11.664062 -26.28125 10.722656 -25.90625 9.953125 -25.15625 C 9.191406 -24.40625 8.8125 -23.457031 8.8125 -22.3125 L 8.8125 0 L 3.59375 0 L 3.59375 -22.3125 C 3.59375 -24.082031 3.988281 -25.65625 4.78125 -27.03125 C 5.582031 -28.414062 6.671875 -29.503906 8.046875 -30.296875 C 9.429688 -31.097656 11.007812 -31.5 12.78125 -31.5 L 47.515625 -31.5 C 49.285156 -31.5 50.859375 -31.097656 52.234375 -30.296875 C 53.617188 -29.503906 54.707031 -28.414062 55.5 -27.03125 C 56.300781 -25.65625 56.703125 -24.082031 56.703125 -22.3125 L 56.703125 0 L 51.484375 0 Z M 51.484375 -22.3125 "/></g></g></g><g fill="#57de43" fill-opacity="1"><g transform="translate(148.012373, 51.045429)"><g><path d="M 8.8125 -22.3125 C 8.8125 -21.207031 9.191406 -20.269531 9.953125 -19.5 C 10.722656 -18.738281 11.664062 -18.359375 12.78125 -18.359375 L 51.484375 -18.359375 L 51.484375 -31.5 L 56.703125 -31.5 L 56.703125 -9.1875 C 56.703125 -7.414062 56.300781 -5.835938 55.5 -4.453125 C 54.707031 -3.078125 53.617188 -1.988281 52.234375 -1.1875 C 50.859375 -0.394531 49.285156 0 47.515625 0 L 4.953125 0 L 4.953125 -5.21875 L 47.515625 -5.21875 C 48.660156 -5.21875 49.609375 -5.597656 50.359375 -6.359375 C 51.109375 -7.128906 51.484375 -8.070312 51.484375 -9.1875 L 51.484375 -13.140625 L 12.78125 -13.140625 C 11.007812 -13.140625 9.429688 -13.535156 8.046875 -14.328125 C 6.671875 -15.128906 5.582031 -16.21875 4.78125 -17.59375 C 3.988281 -18.976562 3.59375 -20.550781 3.59375 -22.3125 L 3.59375 -31.5 L 8.8125 -31.5 Z M 8.8125 -22.3125 "/></g></g></g><g fill="#57de43" fill-opacity="1"><g transform="translate(211.452995, 51.045429)"><g><path d="M 29.34375 0 L 29.34375 -26.28125 L 3.59375 -26.28125 L 3.59375 -31.5 L 60.296875 -31.5 L 60.296875 -26.28125 L 34.5625 -26.28125 L 34.5625 0 Z M 29.34375 0 "/></g></g></g><g fill="#57de43" fill-opacity="1"><g transform="translate(278.49306, 51.045429)"><g><path d="M 51.484375 -22.3125 C 51.484375 -23.457031 51.109375 -24.40625 50.359375 -25.15625 C 49.609375 -25.90625 48.660156 -26.28125 47.515625 -26.28125 L 12.78125 -26.28125 C 11.664062 -26.28125 10.722656 -25.90625 9.953125 -25.15625 C 9.191406 -24.40625 8.8125 -23.457031 8.8125 -22.3125 L 8.8125 -18.359375 L 51.484375 -18.359375 Z M 3.59375 0 L 3.59375 -22.3125 C 3.59375 -24.082031 3.988281 -25.65625 4.78125 -27.03125 C 5.582031 -28.414062 6.671875 -29.503906 8.046875 -30.296875 C 9.429688 -31.097656 11.007812 -31.5 12.78125 -31.5 L 47.515625 -31.5 C 49.285156 -31.5 50.859375 -31.097656 52.234375 -30.296875 C 53.617188 -29.503906 54.707031 -28.414062 55.5 -27.03125 C 56.300781 -25.65625 56.703125 -24.082031 56.703125 -22.3125 L 56.703125 0 L 51.484375 0 L 51.484375 -13.140625 L 8.8125 -13.140625 L 8.8125 0 Z M 3.59375 0 "/></g></g></g><g fill="#5271ff" fill-opacity="1"><g transform="translate(85.805812, 77.503633)"><g><path d="M 12.4375 0 L 10.234375 0 L 10.234375 -7.53125 C 10.234375 -8.832031 10.035156 -9.773438 9.640625 -10.359375 C 9.242188 -10.953125 8.53125 -11.25 7.5 -11.25 C 6.332031 -11.25 5.503906 -10.84375 5.015625 -10.03125 C 4.535156 -9.226562 4.296875 -8.003906 4.296875 -6.359375 L 4.296875 0 L 2.09375 0 L 2.09375 -12.921875 L 4.296875 -12.921875 L 4.296875 -11.359375 L 4.34375 -11.359375 C 4.800781 -11.984375 5.328125 -12.457031 5.921875 -12.78125 C 6.515625 -13.113281 7.21875 -13.28125 8.03125 -13.28125 C 9.476562 -13.28125 10.570312 -12.832031 11.3125 -11.9375 C 12.0625 -11.050781 12.4375 -9.675781 12.4375 -7.8125 Z M 12.4375 0 "/></g></g></g><g fill="#5271ff" fill-opacity="1"><g transform="translate(100.871688, 77.503633)"><g><path d="M 0.9375 -6.4375 C 0.9375 -7.664062 1.238281 -8.8125 1.84375 -9.875 C 2.445312 -10.9375 3.269531 -11.769531 4.3125 -12.375 C 5.363281 -12.976562 6.503906 -13.28125 7.734375 -13.28125 C 8.953125 -13.28125 10.078125 -12.976562 11.109375 -12.375 C 12.148438 -11.769531 12.976562 -10.941406 13.59375 -9.890625 C 14.207031 -8.835938 14.515625 -7.6875 14.515625 -6.4375 C 14.515625 -5.207031 14.210938 -4.066406 13.609375 -3.015625 C 13.003906 -1.960938 12.175781 -1.132812 11.125 -0.53125 C 10.082031 0.0625 8.953125 0.359375 7.734375 0.359375 C 6.503906 0.359375 5.359375 0.0546875 4.296875 -0.546875 C 3.242188 -1.148438 2.421875 -1.976562 1.828125 -3.03125 C 1.234375 -4.09375 0.9375 -5.226562 0.9375 -6.4375 Z M 7.703125 -11.25 C 6.398438 -11.25 5.3125 -10.785156 4.4375 -9.859375 C 3.570312 -8.929688 3.140625 -7.800781 3.140625 -6.46875 C 3.140625 -5.476562 3.375 -4.597656 3.84375 -3.828125 C 4.320312 -3.066406 4.90625 -2.515625 5.59375 -2.171875 C 6.28125 -1.835938 6.992188 -1.671875 7.734375 -1.671875 C 8.578125 -1.671875 9.34375 -1.867188 10.03125 -2.265625 C 10.726562 -2.660156 11.28125 -3.226562 11.6875 -3.96875 C 12.101562 -4.71875 12.3125 -5.550781 12.3125 -6.46875 C 12.3125 -7.3125 12.125 -8.097656 11.75 -8.828125 C 11.375 -9.554688 10.828125 -10.140625 10.109375 -10.578125 C 9.398438 -11.023438 8.597656 -11.25 7.703125 -11.25 Z M 7.703125 -11.25 "/></g></g></g><g fill="#5271ff" fill-opacity="1"><g transform="translate(116.872301, 77.503633)"><g><path d="M 10.421875 -13.921875 L 14.46875 -4.1875 L 18.3125 -12.921875 L 20.8125 -12.921875 L 14.40625 0.90625 L 10.421875 -8.71875 L 6.4375 0.90625 L 0.078125 -12.921875 L 2.578125 -12.921875 L 6.40625 -4.1875 Z M 3.140625 0 Z M 3.140625 0 "/></g></g></g><g fill="#5271ff" fill-opacity="1"><g transform="translate(138.316329, 77.503633)"><g/></g></g><g fill="#5271ff" fill-opacity="1"><g transform="translate(147.333965, 77.503633)"><g><path d="M 2.5 -12.921875 L 7.0625 -3.65625 L 11.25 -12.921875 L 13.75 -12.921875 L 4.203125 7.265625 L 1.703125 7.265625 L 5.890625 -1.203125 L -0.0625 -12.921875 Z M 2.5 -12.921875 "/></g></g></g><g fill="#5271ff" fill-opacity="1"><g transform="translate(161.575088, 77.503633)"><g><path d="M 0.9375 -6.4375 C 0.9375 -7.664062 1.238281 -8.8125 1.84375 -9.875 C 2.445312 -10.9375 3.269531 -11.769531 4.3125 -12.375 C 5.363281 -12.976562 6.503906 -13.28125 7.734375 -13.28125 C 8.953125 -13.28125 10.078125 -12.976562 11.109375 -12.375 C 12.148438 -11.769531 12.976562 -10.941406 13.59375 -9.890625 C 14.207031 -8.835938 14.515625 -7.6875 14.515625 -6.4375 C 14.515625 -5.207031 14.210938 -4.066406 13.609375 -3.015625 C 13.003906 -1.960938 12.175781 -1.132812 11.125 -0.53125 C 10.082031 0.0625 8.953125 0.359375 7.734375 0.359375 C 6.503906 0.359375 5.359375 0.0546875 4.296875 -0.546875 C 3.242188 -1.148438 2.421875 -1.976562 1.828125 -3.03125 C 1.234375 -4.09375 0.9375 -5.226562 0.9375 -6.4375 Z M 7.703125 -11.25 C 6.398438 -11.25 5.3125 -10.785156 4.4375 -9.859375 C 3.570312 -8.929688 3.140625 -7.800781 3.140625 -6.46875 C 3.140625 -5.476562 3.375 -4.597656 3.84375 -3.828125 C 4.320312 -3.066406 4.90625 -2.515625 5.59375 -2.171875 C 6.28125 -1.835938 6.992188 -1.671875 7.734375 -1.671875 C 8.578125 -1.671875 9.34375 -1.867188 10.03125 -2.265625 C 10.726562 -2.660156 11.28125 -3.226562 11.6875 -3.96875 C 12.101562 -4.71875 12.3125 -5.550781 12.3125 -6.46875 C 12.3125 -7.3125 12.125 -8.097656 11.75 -8.828125 C 11.375 -9.554688 10.828125 -10.140625 10.109375 -10.578125 C 9.398438 -11.023438 8.597656 -11.25 7.703125 -11.25 Z M 7.703125 -11.25 "/></g></g></g><g fill="#5271ff" fill-opacity="1"><g transform="translate(177.575702, 77.503633)"><g><path d="M 4.125 -12.921875 L 4.125 -5.53125 C 4.125 -4.175781 4.332031 -3.191406 4.75 -2.578125 C 5.175781 -1.972656 5.941406 -1.671875 7.046875 -1.671875 C 8.117188 -1.671875 8.867188 -1.96875 9.296875 -2.5625 C 9.734375 -3.164062 9.953125 -4.117188 9.953125 -5.421875 L 9.953125 -12.921875 L 12.15625 -12.921875 L 12.15625 -5.328125 C 12.15625 -3.460938 11.726562 -2.046875 10.875 -1.078125 C 10.019531 -0.117188 8.742188 0.359375 7.046875 0.359375 C 5.335938 0.359375 4.054688 -0.125 3.203125 -1.09375 C 2.347656 -2.070312 1.921875 -3.484375 1.921875 -5.328125 L 1.921875 -12.921875 Z M 4.125 -12.921875 "/></g></g></g><g fill="#5271ff" fill-opacity="1"><g transform="translate(192.201708, 77.503633)"><g/></g></g><g fill="#5271ff" fill-opacity="1"><g transform="translate(201.219344, 77.503633)"><g><path d="M 4.40625 -17.578125 L 4.40625 -12.921875 L 6.703125 -12.921875 L 6.703125 -10.890625 L 4.40625 -10.890625 L 4.40625 0 L 2.203125 0 L 2.203125 -10.890625 L 0.859375 -10.890625 L 0.859375 -12.921875 L 2.203125 -12.921875 L 2.203125 -17.578125 Z M 4.40625 -17.578125 "/></g></g></g><g fill="#5271ff" fill-opacity="1"><g transform="translate(208.367519, 77.503633)"><g><path d="M 11.6875 -11.078125 L 11.6875 -12.921875 L 13.890625 -12.921875 L 13.890625 0 L 11.6875 0 L 11.6875 -1.78125 L 11.625 -1.78125 C 10.488281 -0.351562 9.003906 0.359375 7.171875 0.359375 C 5.378906 0.359375 3.898438 -0.300781 2.734375 -1.625 C 1.566406 -2.945312 0.984375 -4.550781 0.984375 -6.4375 C 0.984375 -8.414062 1.570312 -10.050781 2.75 -11.34375 C 3.925781 -12.632812 5.410156 -13.28125 7.203125 -13.28125 C 8.097656 -13.28125 8.925781 -13.085938 9.6875 -12.703125 C 10.445312 -12.316406 11.09375 -11.773438 11.625 -11.078125 Z M 7.453125 -11.25 C 6.273438 -11.25 5.28125 -10.796875 4.46875 -9.890625 C 3.65625 -8.992188 3.25 -7.894531 3.25 -6.59375 C 3.25 -5.207031 3.644531 -4.039062 4.4375 -3.09375 C 5.238281 -2.144531 6.253906 -1.671875 7.484375 -1.671875 C 8.785156 -1.671875 9.828125 -2.117188 10.609375 -3.015625 C 11.398438 -3.921875 11.796875 -5.109375 11.796875 -6.578125 C 11.796875 -7.910156 11.390625 -9.019531 10.578125 -9.90625 C 9.773438 -10.800781 8.734375 -11.25 7.453125 -11.25 Z M 7.453125 -11.25 "/></g></g></g><g fill="#5271ff" fill-opacity="1"><g transform="translate(224.780501, 77.503633)"><g><path d="M 4.1875 -22.6875 L 4.1875 -8.140625 L 8.875 -12.921875 L 11.828125 -12.921875 L 6.296875 -7.421875 L 12.875 0 L 9.953125 0 L 4.75 -5.890625 L 4.1875 -5.3125 L 4.1875 0 L 1.984375 0 L 1.984375 -22.6875 Z M 4.1875 -22.6875 "/></g></g></g><g fill="#5271ff" fill-opacity="1"><g transform="translate(238.251843, 77.503633)"><g><path d="M 13.34375 -6 L 3.1875 -6 C 3.226562 -4.707031 3.648438 -3.660156 4.453125 -2.859375 C 5.265625 -2.066406 6.253906 -1.671875 7.421875 -1.671875 C 8.242188 -1.671875 8.972656 -1.878906 9.609375 -2.296875 C 10.242188 -2.722656 10.828125 -3.40625 11.359375 -4.34375 L 13.234375 -3.265625 C 12.609375 -2.117188 11.785156 -1.226562 10.765625 -0.59375 C 9.742188 0.0390625 8.578125 0.359375 7.265625 0.359375 C 5.992188 0.359375 4.875 0.0546875 3.90625 -0.546875 C 2.9375 -1.148438 2.195312 -1.960938 1.6875 -2.984375 C 1.1875 -4.003906 0.9375 -5.109375 0.9375 -6.296875 C 0.9375 -7.617188 1.1875 -8.8125 1.6875 -9.875 C 2.195312 -10.9375 2.925781 -11.769531 3.875 -12.375 C 4.832031 -12.976562 5.941406 -13.28125 7.203125 -13.28125 C 8.429688 -13.28125 9.515625 -12.984375 10.453125 -12.390625 C 11.398438 -11.796875 12.117188 -10.972656 12.609375 -9.921875 C 13.109375 -8.878906 13.359375 -7.707031 13.359375 -6.40625 C 13.359375 -6.28125 13.351562 -6.144531 13.34375 -6 Z M 11.03125 -7.859375 C 10.84375 -8.867188 10.390625 -9.6875 9.671875 -10.3125 C 8.960938 -10.9375 8.148438 -11.25 7.234375 -11.25 C 6.335938 -11.25 5.492188 -10.921875 4.703125 -10.265625 C 3.910156 -9.617188 3.441406 -8.816406 3.296875 -7.859375 Z M 11.03125 -7.859375 "/></g></g></g><g fill="#5271ff" fill-opacity="1"><g transform="translate(253.070291, 77.503633)"><g/></g></g><g fill="#5271ff" fill-opacity="1"><g transform="translate(262.087927, 77.503633)"><g><path d="M 11.6875 -11.078125 L 11.6875 -12.921875 L 13.890625 -12.921875 L 13.890625 0 L 11.6875 0 L 11.6875 -1.78125 L 11.625 -1.78125 C 10.488281 -0.351562 9.003906 0.359375 7.171875 0.359375 C 5.378906 0.359375 3.898438 -0.300781 2.734375 -1.625 C 1.566406 -2.945312 0.984375 -4.550781 0.984375 -6.4375 C 0.984375 -8.414062 1.570312 -10.050781 2.75 -11.34375 C 3.925781 -12.632812 5.410156 -13.28125 7.203125 -13.28125 C 8.097656 -13.28125 8.925781 -13.085938 9.6875 -12.703125 C 10.445312 -12.316406 11.09375 -11.773438 11.625 -11.078125 Z M 7.453125 -11.25 C 6.273438 -11.25 5.28125 -10.796875 4.46875 -9.890625 C 3.65625 -8.992188 3.25 -7.894531 3.25 -6.59375 C 3.25 -5.207031 3.644531 -4.039062 4.4375 -3.09375 C 5.238281 -2.144531 6.253906 -1.671875 7.484375 -1.671875 C 8.785156 -1.671875 9.828125 -2.117188 10.609375 -3.015625 C 11.398438 -3.921875 11.796875 -5.109375 11.796875 -6.578125 C 11.796875 -7.910156 11.390625 -9.019531 10.578125 -9.90625 C 9.773438 -10.800781 8.734375 -11.25 7.453125 -11.25 Z M 7.453125 -11.25 "/></g></g></g><g fill="#5271ff" fill-opacity="1"><g transform="translate(278.500909, 77.503633)"><g><path d="M 11.6875 -9.078125 L 11.625 -9.078125 C 11.15625 -9.710938 10.578125 -10.234375 9.890625 -10.640625 C 9.203125 -11.046875 8.445312 -11.25 7.625 -11.25 C 6.332031 -11.25 5.242188 -10.78125 4.359375 -9.84375 C 3.484375 -8.90625 3.046875 -7.78125 3.046875 -6.46875 C 3.046875 -5.144531 3.46875 -4.015625 4.3125 -3.078125 C 5.15625 -2.140625 6.21875 -1.671875 7.5 -1.671875 C 8.4375 -1.671875 9.238281 -1.867188 9.90625 -2.265625 C 10.582031 -2.660156 11.1875 -3.207031 11.71875 -3.90625 L 11.765625 -3.90625 L 11.765625 -0.96875 C 11.160156 -0.539062 10.519531 -0.210938 9.84375 0.015625 C 9.164062 0.242188 8.441406 0.359375 7.671875 0.359375 C 6.441406 0.359375 5.289062 0.0664062 4.21875 -0.515625 C 3.144531 -1.109375 2.304688 -1.929688 1.703125 -2.984375 C 1.097656 -4.035156 0.796875 -5.195312 0.796875 -6.46875 C 0.796875 -7.65625 1.09375 -8.773438 1.6875 -9.828125 C 2.28125 -10.878906 3.117188 -11.71875 4.203125 -12.34375 C 5.285156 -12.96875 6.453125 -13.28125 7.703125 -13.28125 C 8.359375 -13.28125 9.003906 -13.1875 9.640625 -13 C 10.273438 -12.820312 10.957031 -12.484375 11.6875 -11.984375 Z M 11.6875 -9.078125 "/></g></g></g><g fill="#5271ff" fill-opacity="1"><g transform="translate(292.137207, 77.503633)"><g><path d="M 4.40625 -17.578125 L 4.40625 -12.921875 L 6.703125 -12.921875 L 6.703125 -10.890625 L 4.40625 -10.890625 L 4.40625 0 L 2.203125 0 L 2.203125 -10.890625 L 0.859375 -10.890625 L 0.859375 -12.921875 L 2.203125 -12.921875 L 2.203125 -17.578125 Z M 4.40625 -17.578125 "/></g></g></g><g fill="#5271ff" fill-opacity="1"><g transform="translate(299.285381, 77.503633)"><g><path d="M 4.703125 -12.921875 L 4.703125 0 L 2.5 0 L 2.5 -12.921875 Z M 2.03125 -17.84375 C 2.03125 -18.25 2.191406 -18.601562 2.515625 -18.90625 C 2.835938 -19.207031 3.203125 -19.359375 3.609375 -19.359375 C 4.023438 -19.359375 4.390625 -19.207031 4.703125 -18.90625 C 5.015625 -18.601562 5.171875 -18.25 5.171875 -17.84375 C 5.171875 -17.363281 5.015625 -16.972656 4.703125 -16.671875 C 4.390625 -16.367188 4.023438 -16.21875 3.609375 -16.21875 C 3.179688 -16.21875 2.8125 -16.363281 2.5 -16.65625 C 2.1875 -16.957031 2.03125 -17.351562 2.03125 -17.84375 Z M 2.03125 -17.84375 "/></g></g></g><g fill="#5271ff" fill-opacity="1"><g transform="translate(307.038381, 77.503633)"><g><path d="M 0.9375 -6.4375 C 0.9375 -7.664062 1.238281 -8.8125 1.84375 -9.875 C 2.445312 -10.9375 3.269531 -11.769531 4.3125 -12.375 C 5.363281 -12.976562 6.503906 -13.28125 7.734375 -13.28125 C 8.953125 -13.28125 10.078125 -12.976562 11.109375 -12.375 C 12.148438 -11.769531 12.976562 -10.941406 13.59375 -9.890625 C 14.207031 -8.835938 14.515625 -7.6875 14.515625 -6.4375 C 14.515625 -5.207031 14.210938 -4.066406 13.609375 -3.015625 C 13.003906 -1.960938 12.175781 -1.132812 11.125 -0.53125 C 10.082031 0.0625 8.953125 0.359375 7.734375 0.359375 C 6.503906 0.359375 5.359375 0.0546875 4.296875 -0.546875 C 3.242188 -1.148438 2.421875 -1.976562 1.828125 -3.03125 C 1.234375 -4.09375 0.9375 -5.226562 0.9375 -6.4375 Z M 7.703125 -11.25 C 6.398438 -11.25 5.3125 -10.785156 4.4375 -9.859375 C 3.570312 -8.929688 3.140625 -7.800781 3.140625 -6.46875 C 3.140625 -5.476562 3.375 -4.597656 3.84375 -3.828125 C 4.320312 -3.066406 4.90625 -2.515625 5.59375 -2.171875 C 6.28125 -1.835938 6.992188 -1.671875 7.734375 -1.671875 C 8.578125 -1.671875 9.34375 -1.867188 10.03125 -2.265625 C 10.726562 -2.660156 11.28125 -3.226562 11.6875 -3.96875 C 12.101562 -4.71875 12.3125 -5.550781 12.3125 -6.46875 C 12.3125 -7.3125 12.125 -8.097656 11.75 -8.828125 C 11.375 -9.554688 10.828125 -10.140625 10.109375 -10.578125 C 9.398438 -11.023438 8.597656 -11.25 7.703125 -11.25 Z M 7.703125 -11.25 "/></g></g></g><g fill="#5271ff" fill-opacity="1"><g transform="translate(323.038995, 77.503633)"><g><path d="M 12.4375 0 L 10.234375 0 L 10.234375 -7.53125 C 10.234375 -8.832031 10.035156 -9.773438 9.640625 -10.359375 C 9.242188 -10.953125 8.53125 -11.25 7.5 -11.25 C 6.332031 -11.25 5.503906 -10.84375 5.015625 -10.03125 C 4.535156 -9.226562 4.296875 -8.003906 4.296875 -6.359375 L 4.296875 0 L 2.09375 0 L 2.09375 -12.921875 L 4.296875 -12.921875 L 4.296875 -11.359375 L 4.34375 -11.359375 C 4.800781 -11.984375 5.328125 -12.457031 5.921875 -12.78125 C 6.515625 -13.113281 7.21875 -13.28125 8.03125 -13.28125 C 9.476562 -13.28125 10.570312 -12.832031 11.3125 -11.9375 C 12.0625 -11.050781 12.4375 -9.675781 12.4375 -7.8125 Z M 12.4375 0 "/></g></g></g></svg>