<svg xmlns="http://www.w3.org/2000/svg" version="1.1" xmlns:xlink="http://www.w3.org/1999/xlink" viewBox="0 0 3000 2000">
  <defs>
    <style>
      .cls-1 {
        fill: none;
      }

      .cls-2 {
        fill: url(#linear-gradient);
      }

      .cls-3 {
        clip-path: url(#clippath);
      }
    </style>
    <clipPath id="clippath">
      <rect class="cls-1" y="418.94" width="3000" height="2000"/>
    </clipPath>
    <linearGradient id="linear-gradient" x1="-316.46" y1="1519.27" x2="3640.9" y2="1519.27" gradientUnits="userSpaceOnUse">
      <stop offset="0" stop-color="#044ee3"/>
      <stop offset=".03" stop-color="#0855e4"/>
      <stop offset=".26" stop-color="#2284ed"/>
      <stop offset=".48" stop-color="#36a8f5"/>
      <stop offset=".68" stop-color="#45c2fa"/>
      <stop offset=".86" stop-color="#4dd2fd"/>
      <stop offset="1" stop-color="#51d8ff"/>
    </linearGradient>
  </defs>
  <g>
    <g id="objects">
      <g class="cls-3">
        <path class="cls-2" d="M2229.27,1457.2c-134.78,0-268.95-10.77-401.44-32.31-223.87-36.39-444.62-103.66-658.1-168.71-130.56-39.79-265.56-80.93-399.97-114.61-215.88-54.11-411.26-81.17-588.45-81.17s-342.93,28.2-488.66,84.63l-1.44-3.73c81.99-31.75,170.4-54.9,262.79-68.8,85.51-12.87,177.03-18.21,272-15.87,165.16,4.07,343.34,30.59,544.73,81.06,134.51,33.71,269.56,74.87,400.17,114.67,213.35,65.02,433.97,132.25,657.57,168.59,131.33,21.35,264.88,31.9,398.61,31.9,355.56,0,712.77-74.55,1035.72-218.97l1.63,3.65c-222.52,99.51-459.61,166.17-704.68,198.14-110.12,14.36-220.51,21.54-330.48,21.54ZM2697.06,1445.41c223.24-29.65,416.07-79.22,589.51-151.55l-1.54-3.69c-173.11,72.19-365.61,121.68-588.5,151.28-222.7,29.57-455.89,37.2-693.07,22.67-57.78-3.54-110.62-8.15-161.55-14.09-31.51-3.68-63.25-7.98-94.32-12.78-209.46-32.39-418.74-92.67-613.69-152.98-26.99-8.35-54.4-16.91-80.9-25.18-90.3-28.19-183.69-57.35-276.12-83.1-233.59-65.2-425.12-95.68-602.77-95.95-.67,0-1.33,0-2,0-174.12,0-335.25,30.45-478.92,90.5l1.54,3.69c143.18-59.85,303.77-90.19,477.37-90.19.66,0,1.33,0,1.99,0,177.27.26,368.47,30.71,601.7,95.8,92.37,25.73,185.72,54.88,276,83.06,26.51,8.28,53.91,16.83,80.91,25.18,195.1,60.35,404.55,120.68,614.26,153.11,31.12,4.81,62.9,9.12,94.47,12.8,51,5.95,103.92,10.56,161.77,14.11,77.98,4.78,155.52,7.16,232.41,7.16,157.23,0,311.7-9.97,461.43-29.85ZM2715.99,1473.44c116.03-10.15,211.28-22.89,299.75-40.12,106.34-20.71,202.17-47.89,292.97-83.11l-1.45-3.73c-208.95,81.04-416.33,107.64-591.62,122.97-208.53,18.23-443.52,23.97-698.45,17.06-63.57-1.73-115-4.07-161.85-7.39-32.4-2.29-64.2-5.16-94.5-8.52-180.65-20-377.64-64.8-619.94-141.02-53.27-16.75-107.1-34.42-159.16-51.5-65.06-21.35-132.34-43.43-198.73-63.79-111.19-34.2-208.77-59.37-298.33-76.95-109.45-21.48-209.47-32.41-305.79-33.4-84.92-.85-168.25,6.5-247.68,21.83-82.98,16.02-162.39,40.92-236.04,74l1.64,3.65c144.96-65.11,307.13-97.23,482.04-95.48,224.48,2.31,440.16,60.09,602.99,110.17,66.35,20.34,133.61,42.42,198.65,63.76,52.07,17.09,105.92,34.76,159.21,51.52,242.55,76.29,439.78,121.15,620.7,141.18,30.35,3.36,62.2,6.23,94.66,8.53,46.91,3.32,98.39,5.67,162.02,7.4,69.78,1.89,138.04,2.83,204.7,2.83,177.02,0,342.61-6.66,494.2-19.91ZM2030.96,1512.1c29.79-.2,59.77-.38,89.88-.56,204.15-1.23,415.24-2.5,614.08-10.89,190.38-8.05,393.22-22,595.94-94.9l-1.35-3.76c-202.19,72.71-404.68,86.63-594.75,94.66-198.77,8.39-409.83,9.66-613.94,10.88-30.11.18-60.09.36-89.88.56-60.16.4-110.3.61-162.14-.68-33.72-.85-64.69-2.24-94.68-4.25-189.4-12.7-394.22-54.91-626.18-129.06-71.56-22.87-143.44-47.92-212.95-72.15-47.76-16.65-97.15-33.87-145.8-50.15-176.66-59.36-386.75-120.6-605.47-124.74-85.31-1.58-169.42,5.93-250,22.34-83.47,16.99-163.04,43.51-236.52,78.84l1.73,3.6c143.83-69.14,311.44-104,484.72-100.78,218.17,4.13,427.89,65.27,604.27,124.53,48.63,16.27,98.01,33.49,145.76,50.13,69.53,24.24,141.43,49.3,213.04,72.18,232.27,74.25,437.41,116.52,627.13,129.24,30.04,2.02,61.07,3.41,94.85,4.26,29.83.74,59.08.99,89.99.99,22.88,0,46.68-.14,72.28-.31ZM1882.31,1535.33c40.25-.84,81.45-2.59,121.29-4.3,13.69-.58,27.42-1.17,41.23-1.73,197.68-7.98,404.05-7.09,603.64-6.24,34.74.15,70.65.3,105.38.4,111.96.31,205.22-.1,300.85-8.2,110.7-9.37,208.28-28.47,298.3-58.37l-1.26-3.8c-203.04,67.45-403.78,66.9-597.88,66.36-34.73-.1-70.64-.25-105.38-.4-199.63-.86-406.04-1.75-603.81,6.24-13.81.56-27.55,1.14-41.24,1.73-39.82,1.7-80.99,3.46-121.2,4.29-34.54.71-65.57.72-94.86.02-194.54-4.62-407.32-44.02-632.43-117.1-85.19-27.65-170.13-59.21-252.29-89.74-35.17-13.07-71.54-26.59-107.33-39.57-188.8-68.81-392.98-133.29-606.82-139.14-175.02-4.72-344.23,32.12-489.33,106.51l1.82,3.56c144.5-74.08,313.05-110.76,487.4-106.07,213.26,5.84,417.07,70.21,605.56,138.9,35.77,12.98,72.14,26.49,107.3,39.56,82.19,30.54,167.18,62.12,252.45,89.8,225.48,73.21,438.64,112.67,633.57,117.3,14.56.35,29.55.52,45.18.52s32.43-.18,49.86-.54ZM1800.7,1561.32c28.75-.55,59.9-1.95,95.23-4.29,30.68-2.04,62-4.62,92.29-7.12,23-1.9,46.78-3.86,70.48-5.61,250.28-18.44,513.08-9.8,714.08-.22,11.91.57,23.79,1.15,35.64,1.73,193.25,9.46,375.78,18.4,566.72-39.96l-1.17-3.83c-190.27,58.16-372.47,49.24-565.35,39.79-11.86-.58-23.74-1.16-35.65-1.73-201.11-9.59-464.08-18.24-714.56.22-23.72,1.75-47.51,3.71-70.52,5.61-30.27,2.5-61.58,5.08-92.22,7.12-35.27,2.34-66.36,3.74-95.04,4.28-197.58,3.82-418.43-32.56-638.67-105.15-95.81-31.57-190.63-69.15-282.33-105.49-25.62-10.15-52.1-20.65-78.15-30.83-178.59-70.16-387.59-145.67-608.16-153.54-86.28-3.03-171.95,4.82-254.64,23.34-84.59,18.94-164.49,48.72-237.49,88.51l1.91,3.51c144.99-79.02,314.46-117.53,490.08-111.36,219.94,7.84,428.56,83.22,606.85,153.26,26.04,10.18,52.52,20.67,78.14,30.82,91.76,36.36,186.64,73.96,282.56,105.57,107.45,35.42,215.1,62.38,319.96,80.12,100.14,16.95,197.94,25.51,291.19,25.51,9.67,0,19.29-.09,28.85-.28ZM1814.13,1586c28.6-1.77,58.92-4.49,95.42-8.57,24.36-2.73,49.18-5.81,73.2-8.8,29.26-3.64,59.51-7.4,89.82-10.63,203.42-21.71,445.37-19.89,719.14,5.4,22.61,2.09,45.46,4.33,67.55,6.5,91.87,9.02,178.64,17.54,267.74,17.65.54,0,1.08,0,1.62,0,100.3,0,185.72-10.83,268.67-34.05l-1.08-3.85c-182.39,51.05-354.42,34.16-536.56,16.27-22.1-2.17-44.95-4.41-67.57-6.5-274.03-25.31-516.25-27.13-719.93-5.39-30.35,3.23-60.62,7-89.89,10.64-24,2.99-48.82,6.07-73.15,8.8-36.44,4.07-66.7,6.79-95.23,8.55-202.18,12.52-425.19-19.71-644.92-93.21-104.42-34.91-206.96-78.2-306.12-120.06-18.11-7.64-36.83-15.55-55.24-23.26-189.34-79.76-392.36-158.43-609.51-167.93-86.84-3.75-173.29,4.27-256.96,23.84-85.2,19.93-165.26,51.34-237.97,93.35l2,3.46c143.25-82.77,318.25-124.19,492.76-116.65,216.49,9.48,419.13,88,608.13,167.63,18.4,7.71,37.13,15.62,55.23,23.26,99.23,41.89,201.84,85.21,306.41,120.17,189.23,63.3,380.9,96.05,559.7,96.05,29.27,0,58.21-.88,86.73-2.64ZM3419.43,1595.86l-.99-3.88c-177.42,45.23-342.46,20.61-517.2-5.46-29.43-4.39-59.86-8.93-90.06-13.06-185.16-25.35-461.29-47.83-725.3-11.01-35.09,4.89-69.91,10.71-103.58,16.35-19.6,3.28-39.86,6.67-59.75,9.8-37.05,5.83-67.37,9.9-95.41,12.82-205.99,21.48-431.16-6.62-651.16-81.27-111.59-37.84-220.29-86.64-325.41-133.82-12.28-5.51-24.55-11.02-36.82-16.51-199.62-89.76-396.54-171.25-610.85-182.33-176.84-9.04-353.6,34.47-497.73,122.53l2.09,3.41c143.45-87.64,319.4-130.95,495.44-121.95,213.62,11.05,410.16,92.39,609.42,181.99,12.27,5.49,24.54,11,36.82,16.51,105.21,47.23,213.99,96.06,325.76,133.96,107.66,36.53,217.7,62.14,327.06,76.12,112.37,14.37,221.99,16.16,325.8,5.34,28.11-2.93,58.49-7.01,95.62-12.84,19.91-3.13,40.18-6.53,59.79-9.81,33.65-5.63,68.44-11.45,103.47-16.33,263.55-36.76,539.29-14.3,724.2,11.01,30.18,4.13,60.6,8.67,90.02,13.06,88.07,13.14,171.25,25.55,257.09,29.36,17.49.78,34.51,1.17,51.16,1.17,76.02,0,143.95-8.18,210.52-25.15ZM3441.57,1636.46l-.9-3.9c-174.3,40.2-334.32,8.01-503.75-26.08-34.83-7.01-70.84-14.25-106.64-20.74-122.63-22.23-244.66-35.44-362.72-39.28-131.81-4.28-255.6,3.33-367.94,22.66-38.63,6.64-76.79,14.68-113.69,22.46-16.37,3.45-33.31,7.02-49.94,10.4-38.13,7.72-67.61,12.99-95.59,17.08-206.25,30.18-439.72,5.56-657.41-69.32-117.7-40.47-231.43-94.63-341.41-147.01-7.23-3.44-14.46-6.89-21.69-10.33-94.74-45.29-195.76-92.52-297.66-128.6-112.88-39.96-215.76-62.25-314.54-68.13-88.05-5.19-176.07,3.17-261.6,24.85-86.5,21.92-166.89,56.58-238.93,103.02l2.17,3.36c143.54-92.52,320.45-137.71,498.12-127.24,211.23,12.58,401.55,96.36,610.71,196.35,7.23,3.44,14.46,6.88,21.69,10.33,110.08,52.43,223.91,106.64,341.83,147.19,108.07,37.17,219.3,62.11,330.61,74.12,113.5,12.24,224.08,10.69,328.68-4.62,28.06-4.1,57.61-9.38,95.81-17.12,16.65-3.38,33.59-6.95,49.97-10.4,36.86-7.77,74.98-15.81,113.54-22.44,270.39-46.5,545.82-16.63,729.27,16.62,35.77,6.48,71.76,13.72,106.57,20.72,81.58,16.41,165.93,33.38,249.51,40.75,29.46,2.6,57.94,3.9,85.6,3.9,60.17,0,116.44-6.17,170.33-18.6ZM3463.72,1676.25l-.81-3.92c-172.4,35.71-328.72-3.97-494.23-45.97-38.93-9.88-79.19-20.1-119.29-29.13-258.98-58.38-520.37-66.28-736.02-22.25-41.38,8.44-82.06,18.81-121.4,28.83-13.94,3.55-28.35,7.22-42.52,10.74-26.01,6.45-60.39,14.7-95.77,21.35-209.06,39.32-444.75,18.94-663.66-57.39-123.02-42.87-240.91-102.3-354.91-159.78l-9.06-4.57c-104.39-52.86-198.83-99.68-297.54-137.21-113.25-43.06-216.62-67.24-316-73.92-88.7-5.91-177.49,2.62-263.92,25.35-87.18,22.93-167.73,59.22-239.41,107.86l2.25,3.31c143.55-97.41,321.41-144.48,500.81-132.53,225.88,15.18,431.01,119.06,612,210.71l9.06,4.57c114.12,57.53,232.13,117.03,355.4,159.98,219.56,76.55,455.98,96.98,665.72,57.54,35.48-6.67,69.94-14.94,96-21.4,14.18-3.52,28.6-7.19,42.55-10.75,39.3-10.01,79.93-20.37,121.21-28.79,215.1-43.92,475.89-36.03,734.34,22.23,40.05,9.02,80.28,19.23,119.19,29.11,79.63,20.21,161.98,41.11,243.95,51.94,39.51,5.22,77.28,7.83,113.7,7.83,48.21,0,94.04-4.58,138.38-13.76ZM3485.86,1715.45l-.72-3.93c-171.38,31.58-324.92-15.53-487.47-65.39-42.14-12.93-85.72-26.3-129.18-38-121.71-32.79-245.41-52.48-367.66-58.51-133.89-6.61-259.63,3.7-373.72,30.65-43.57,10.28-86.22,23.04-127.47,35.37-12.04,3.6-24.5,7.33-36.74,10.92-27.95,8.2-61.21,17.65-95.96,25.61-211.57,48.55-449.48,32.41-669.92-45.45-127.72-45.09-248.27-109.28-364.85-171.35-191.93-102.63-390.39-208.76-614.88-225.53-89.36-6.63-178.94,2.07-266.23,25.85-87.88,23.94-168.59,61.86-239.89,112.7l2.32,3.26c141.39-100.83,324.92-151.06,503.5-137.82,223.65,16.71,421.73,122.63,613.29,225.07,116.71,62.14,237.4,126.4,365.4,171.59,109.19,38.57,222.81,62.16,337.71,70.11,115.99,8.03,228.51-.22,334.44-24.53,34.85-7.99,68.18-17.46,96.19-25.67,12.26-3.6,24.72-7.32,36.76-10.92,41.19-12.32,83.79-25.05,127.25-35.31,218.59-51.62,481.19-41.74,739.42,27.84,43.4,11.69,86.94,25.05,129.05,37.96,78.17,23.98,158.99,48.77,239.8,63,47.77,8.41,93.04,12.61,136.53,12.61,38.95,0,76.47-3.37,113.03-10.11ZM3508.01,1754.23l-.64-3.95c-170.99,27.7-322.4-26.8-482.71-84.5-44.7-16.09-90.92-32.73-137.08-47.18-119.81-37.54-247.8-61.1-370.12-68.14-135.06-7.77-261.76,3.88-376.6,34.64-45.35,12.14-89.57,27.33-132.33,42.01-10.55,3.62-21.46,7.37-32.18,11-28.24,9.55-61.74,20.58-96.14,29.88-213.84,57.87-453.98,45.96-676.17-33.52-131.71-47.1-256.04-116.83-365.72-178.36l-5.44-3.06c-95.45-53.75-194.15-109.33-294.69-152.58-112.8-48.52-216.2-76.09-316.09-84.29-181.4-14.8-366.88,37.65-508.91,143.89l2.4,3.2c141.26-105.67,325.76-157.82,506.19-143.1,221.72,18.2,418.68,129.11,609.14,236.37l5.44,3.06c109.83,61.6,234.3,131.42,366.33,178.64,109.85,39.3,224.67,62.21,341.25,68.11,117.32,5.94,230.81-5.67,337.31-34.49,34.5-9.33,68.08-20.38,96.38-29.95,10.74-3.63,21.65-7.38,32.2-11.01,42.69-14.66,86.84-29.82,132.06-41.93,218.48-58.52,489.84-46.33,744.5,33.45,46.08,14.43,92.26,31.05,136.93,47.13,77.04,27.73,156.7,56.4,236.68,73.98,54.72,12.03,106.25,18.02,155.67,18.02,31.55,0,62.25-2.44,92.35-7.32ZM3530.16,1792.69l-.56-3.96c-171.09,24.01-327.84-40.76-479.43-103.4-46.77-19.33-95.14-39.31-143.49-56.57-119.72-42.73-248.55-69.62-372.59-77.76-136.26-8.94-263.95,4.06-379.48,38.64-46.83,14.01-92.3,31.65-136.27,48.7-9.51,3.69-19.01,7.37-28.53,11.02-28.5,10.93-62.23,23.53-96.32,34.14-212.8,66.27-461.54,58.4-682.43-21.59-124.94-45.23-239.94-110.71-366.6-185.36l-14.62-8.65c-93.91-55.57-191.01-113.04-290.16-157.83-111.21-50.25-213.52-78.98-312.78-87.85-89.46-7.95-183.12,1.34-270.87,26.85-88.06,25.61-171.34,67.93-240.84,122.38l2.47,3.15c141.06-110.51,326.54-164.6,508.88-148.4,220.25,19.67,413.94,134.3,601.25,245.14l14.63,8.65c126.83,74.76,242.01,140.33,367.27,185.68,110.56,40.04,226.57,62.28,344.8,66.1,118.7,3.83,233.16-11.12,340.18-44.45,34.2-10.65,68.01-23.28,96.57-34.23,9.52-3.65,19.02-7.34,28.54-11.03,43.9-17.03,89.29-34.63,135.97-48.6,221.3-66.23,494.51-52,749.58,39.05,48.26,17.22,96.58,37.19,143.31,56.5,76.16,31.47,154.92,64.01,234.32,84.93,60.7,15.99,117.58,23.92,172.13,23.92,25.48,0,50.46-1.73,75.07-5.19ZM3552.3,1830.9l-.47-3.97c-171.55,20.47-326.99-52.05-477.31-122.17-48.47-22.61-98.6-46-148.76-66.08-119.68-47.93-249.37-78.15-375.05-87.38-137.51-10.11-266.16,4.24-382.36,42.64-48.09,15.89-94.59,35.99-139.56,55.44-8.51,3.68-17.02,7.36-25.53,11.01-30.17,12.93-62.74,26.53-96.51,38.41-214.73,75.57-465.75,72.05-688.69-9.67-127.5-46.72-246.58-117.65-367.48-192.36-7.54-4.68-15.09-9.36-22.63-14.04-92.55-57.45-188.26-116.85-286.2-163.23-109.85-52.02-211.28-81.94-310.07-91.47-90.15-8.66-184.62.8-273.18,27.36-88.78,26.62-172.22,70.61-241.31,127.22l2.53,3.09c140.82-115.37,327.27-171.39,511.58-153.68,219.18,21.14,410,139.58,594.54,254.12,7.54,4.68,15.08,9.36,22.63,14.04,121.08,74.83,240.35,145.87,368.21,192.72,223.81,82.03,475.81,85.56,691.4,9.69,33.88-11.92,66.52-25.55,96.75-38.5,8.52-3.65,17.03-7.33,25.54-11.01,44.89-19.41,91.31-39.48,139.23-55.31,223.94-74.01,499-57.73,754.67,44.66,50.06,20.04,100.13,43.4,148.56,65.99,75.48,35.21,153.53,71.62,232.54,95.85,65.92,20.22,127.48,30.22,186.58,30.22,20.38,0,40.47-1.19,60.35-3.56ZM3574.45,1868.91l-.39-3.98c-172.29,17.03-326.73-63.24-476.08-140.87-49.88-25.93-101.46-52.74-153.13-75.67-119.68-53.12-250.22-86.66-377.5-97.01-66.95-5.44-132.93-4.49-196.1,2.82-66.28,7.67-129.91,22.42-189.14,43.82-49.15,17.76-96.5,40.34-142.28,62.17-7.7,3.67-15.39,7.34-23.1,10.99-30.39,14.39-63.14,29.52-96.69,42.67-216.53,84.92-469.83,85.74-694.96,2.26-129.94-48.18-248.39-121.8-368.36-199.37-9.89-6.41-19.78-12.83-29.66-19.25-91.35-59.36-185.82-120.75-282.73-168.75-108.68-53.83-209.38-84.95-307.85-95.14-90.86-9.37-186.13.27-275.49,27.86-89.51,27.64-173.12,73.3-241.79,132.06l2.6,3.04c138.46-118.47,330.71-177.9,514.27-158.97,218.43,22.59,406.72,144.94,588.81,263.26,9.88,6.42,19.77,12.84,29.66,19.26,120.17,77.7,238.82,151.45,369.14,199.76,55.7,20.66,114.06,36.41,173.46,46.83,58.75,10.31,118.77,15.43,178.43,15.26,59.69-.18,119.21-5.68,176.93-16.36,58.43-10.8,115.29-26.96,168.99-48.02,33.66-13.2,66.49-28.36,96.94-42.78,7.71-3.65,15.41-7.32,23.11-10.99,45.7-21.79,92.96-44.33,141.92-62.02,223.13-80.64,507.15-61.86,759.76,50.26,51.56,22.88,103.08,49.66,152.91,75.56,74.95,38.96,152.45,79.24,231.21,106.79,70.55,24.67,136.27,36.85,199.51,36.85,16.01,0,31.86-.78,47.59-2.33ZM3596.6,1906.77l-.31-3.99c-173.28,13.68-326.95-74.37-475.55-159.52-51.06-29.26-103.86-59.51-156.8-85.29-119.72-58.3-251.11-95.18-379.96-106.64-67.53-6-134.07-5.02-197.78,2.93-66.82,8.34-130.85,24.39-190.34,47.71-50.09,19.64-98.16,44.7-144.64,68.94-7.01,3.65-14.01,7.31-21.02,10.94-30.59,15.85-63.49,32.51-96.88,46.94-218.24,94.31-473.82,99.47-701.23,14.18-132.15-49.56-250.06-125.9-369.24-206.37-11.97-8.1-23.93-16.22-35.88-24.33-90.28-61.31-183.64-124.71-279.65-174.36-107.66-55.68-207.77-88.01-306.04-98.84-186.69-20.54-381.1,41.24-520.07,165.25l2.66,2.98c138.13-123.28,331.39-184.69,516.97-164.26,217.95,24.03,403.98,150.37,583.88,272.54,11.95,8.12,23.91,16.24,35.88,24.34,119.38,80.62,237.52,157.09,370.07,206.8,56.09,21.04,114.99,36.82,175.07,46.9,59.35,9.96,120.03,14.4,180.36,13.18,60.34-1.21,120.47-8.09,178.7-20.42,58.98-12.49,116.2-30.63,170.08-53.92,33.5-14.47,66.48-31.17,97.13-47.06,7.02-3.64,14.02-7.29,21.03-10.95,46.39-24.19,94.36-49.2,144.25-68.76,225.53-88.43,511.46-67.55,764.86,55.86,52.82,25.72,105.56,55.94,156.56,85.17,74.54,42.71,151.61,86.87,230.24,117.73,74.71,29.32,144.19,43.74,211.25,43.74,12.2,0,24.32-.48,36.37-1.43ZM3618.75,1944.49l-.24-3.99c-174.45,10.38-327.55-85.47-475.6-178.17-52.06-32.59-105.89-66.3-159.9-94.93-119.78-63.49-252.01-103.69-382.41-116.26-68.1-6.57-135.21-5.54-199.46,3.04-67.36,9-131.8,26.36-191.54,51.61-50.9,21.51-99.56,49.05-146.62,75.68-6.44,3.65-12.88,7.29-19.33,10.92-35.55,20.02-65.66,36.39-97.06,51.2-216.63,102.2-481.11,111.96-707.5,26.1-134.08-50.84-256.36-133.29-370.12-213.38-13.83-9.74-27.86-19.68-41.42-29.3-89.32-63.29-181.68-128.74-276.9-180.06-51.27-27.63-99.35-49.14-146.98-65.74-53.45-18.64-105-30.69-157.6-36.84-92.3-10.79-189.16-.81-280.12,28.86-90.99,29.68-174.93,78.69-242.73,141.73l2.72,2.93c137.77-128.1,332.04-191.48,519.66-169.55,217.69,25.47,401.69,155.85,579.63,281.94,13.57,9.62,27.6,19.56,41.43,29.3,113.97,80.23,236.49,162.84,371,213.85,56.49,21.42,115.93,37.23,176.68,46.97,59.96,9.62,121.3,13.35,182.3,11.11,61.01-2.25,121.73-10.49,180.47-24.49,59.52-14.18,117.11-34.31,171.18-59.82,31.51-14.87,61.69-31.27,97.32-51.33,6.45-3.63,12.89-7.28,19.34-10.93,46.96-26.58,95.52-54.06,146.21-75.47,227.86-96.29,515.7-73.31,769.97,61.47,53.88,28.56,107.65,62.22,159.65,94.78,74.22,46.47,150.96,94.52,229.55,128.7,78.49,34.13,151.4,50.86,222.04,50.86,8.82,0,17.62-.26,26.38-.78ZM3640.9,1982.1l-.16-4c-175.82,7.12-328.47-96.56-476.13-196.84-52.9-35.93-107.6-73.08-162.53-104.55-119.86-68.67-252.94-112.2-384.86-125.89-68.68-7.13-136.35-6.07-201.13,3.15-67.9,9.67-132.74,28.34-192.73,55.5-51.61,23.37-100.77,53.38-148.32,82.4-37.24,22.73-75.74,46.24-115.16,66.39-218.16,111.52-485,125.73-713.77,38.03-151.01-57.89-286.43-157.87-417.4-254.55-88.45-65.29-179.91-132.81-274.44-185.82-50.9-28.54-98.7-50.78-146.14-67.99-53.23-19.31-104.67-31.86-157.26-38.36-93.03-11.5-190.69-1.34-282.43,29.36-91.74,30.71-175.84,81.39-243.2,146.57l2.78,2.87c137.37-132.93,332.65-198.29,522.36-174.84,217.63,26.9,399.79,161.37,575.95,291.42,131.18,96.84,266.83,196.98,418.34,255.07,112.94,43.3,238.31,62.69,362.52,56.07,124.22-6.62,246.81-39.22,354.51-94.27,39.56-20.22,78.13-43.77,115.43-66.54,47.44-28.96,96.49-58.9,147.88-82.17,226.71-102.65,523.7-76.95,775.08,67.07,54.8,31.39,109.43,68.5,162.27,104.38,73.98,50.24,150.47,102.19,229.1,139.69,81.94,39.08,158.04,58.18,232.05,58.18,5.8,0,11.6-.12,17.38-.35ZM3640.41,1962.47l-.29-3.99c-181.66,13.21-342.74-89.34-498.52-188.53-50.75-32.31-103.22-65.73-155.62-94.63-120.43-66.7-254.24-109.88-386.97-124.87-68.5-7.74-136.52-7.99-202.16-.76-68.2,7.52-134.1,23.17-195.88,46.52-77.34,29.23-152.21,70.35-224.61,110.11-26.16,14.37-53.21,29.22-80.07,43.36-208.61,109.77-466.33,127.36-689.38,47.06-147.12-53.46-279.67-148.04-407.85-239.5-85.29-60.85-173.48-123.78-264.54-173.4-102.13-55.66-197.5-88.5-291.53-100.42-91.88-11.91-188.31-3.97-278.86,22.98-90.42,26.9-173.86,72.41-241.31,131.61l2.64,3.01c137.16-120.38,330.44-177.81,517.01-153.62,208.51,26.41,384.28,151.83,554.26,273.11,128.4,91.62,261.18,186.35,408.82,240,91.93,33.1,191.84,50.17,292.08,50.17,19.52,0,39.08-.65,58.57-1.95,120.26-8.04,238.51-41.07,341.95-95.5,26.9-14.15,53.96-29.02,80.14-43.39,72.28-39.7,147.02-80.75,224.09-109.87,237.93-89.92,530.13-60.43,781.66,78.87,52.29,28.84,104.71,62.22,155.4,94.5,78.06,49.71,158.77,101.1,241.23,137.41,44.44,19.57,85.81,33.31,126.46,41.99,34.26,7.32,67.35,10.95,100.32,10.95,10.98,0,21.95-.4,32.94-1.2ZM3639.92,1942.58l-.42-3.98c-188.06,19.66-358.21-82.06-522.76-180.44-47.97-28.67-97.57-58.33-146.85-84.51-121.4-64.99-256.13-108.07-389.62-124.6-68.51-8.48-136.9-10.08-203.25-4.76-68.5,5.5-135.26,18.41-198.44,38.39-116.98,36.99-230.35,95.91-345.86,158.14-200.73,108.13-449.32,129.1-665,56.09-144.14-48.79-274.51-138.35-400.59-224.95-81.79-56.18-166.36-114.27-253.57-160.39-97.86-51.74-188.94-82.68-278.45-94.58-185.13-24.61-377.53,25.19-514.67,133.22l2.47,3.14c136.31-107.38,327.59-156.87,511.67-132.4,198.5,26.39,367.17,142.25,530.28,254.3,126.3,86.76,256.91,176.47,401.57,225.44,106.28,35.98,223.37,49.94,338.6,40.39,115.96-9.61,229.92-43.07,329.58-96.75,115.34-62.13,228.53-120.96,345.17-157.84,247.23-78.18,534.52-45.13,788.22,90.68,49.2,26.14,98.75,55.77,146.68,84.42,82.45,49.29,167.71,100.26,254.32,135.44,46.68,18.96,89.99,31.94,132.41,39.69,30.71,5.61,60.45,8.4,89.9,8.4,16.25,0,32.41-.85,48.6-2.54ZM3639.43,1922.57l-.54-3.96c-195.79,26.57-376.51-75.17-551.27-173.56-43.79-24.65-89.06-50.14-133.83-73.18-61.4-31.6-125.8-58.22-191.42-79.12-66.2-21.08-133.92-36.43-201.28-45.62-140.82-19.2-277.05-11.83-404.92,21.92-117.56,31.03-244.16,84.28-387.03,162.8-193.01,106.06-432.49,130.41-640.62,65.13-140.88-44.19-268.92-128.58-392.76-210.19-78.36-51.65-159.4-105.05-242.85-147.71-93.68-47.89-180.58-76.87-265.68-88.61-89.93-12.4-183.89-8.77-271.72,10.49-87.97,19.3-170.08,54.35-237.45,101.37l2.29,3.28c135.62-94.64,324.9-136.2,506.34-111.18,188.74,26.03,350.47,132.62,506.88,235.7,124.06,81.76,252.35,166.31,393.76,210.67,76.96,24.14,159.59,36.46,242.81,36.46,27.9,0,55.88-1.39,83.72-4.18,111.54-11.18,221.23-44.97,317.22-97.72,142.59-78.36,268.89-131.49,386.13-162.43,250.21-66.04,539.89-28.68,794.77,102.5,44.7,23,89.94,48.47,133.69,73.11,87.52,49.27,178.01,100.21,269.51,134.54,49.32,18.5,94.94,30.82,139.47,37.65,27.19,4.17,53.58,6.25,79.63,6.25,21.88,0,43.52-1.47,65.16-4.41ZM3638.94,1902.45l-.66-3.95c-203.66,33.88-395.33-67.86-580.7-166.25-39.27-20.85-79.88-42.4-119.89-62.27-126.7-62.93-259.91-105.16-395.92-125.5-141.21-21.12-278.49-17.47-408.02,10.85-140.25,30.66-284.31,87-428.19,167.45-185.75,103.86-416.12,131.58-616.25,74.16-137.76-39.52-263.66-118.79-385.42-195.45-74.86-47.13-152.28-95.87-231.89-135.08-89.4-44.03-172.05-71.04-252.66-82.58-88.97-12.73-181.69-11.28-268.14,4.19-86.76,15.53-168.2,45.38-235.52,86.31l2.08,3.42c136.78-83.17,319.39-115.96,501.02-89.96,178.82,25.59,333.45,122.94,482.99,217.09,121.99,76.8,248.14,156.22,386.45,195.91,99.15,28.45,207.87,36.76,314.4,24.05,106.99-12.77,212.42-46.85,304.9-98.56,143.54-80.26,287.23-136.46,427.09-167.03,255.75-55.91,540.33-15.31,801.31,114.32,39.96,19.85,80.54,41.39,119.79,62.22,92.75,49.23,188.66,100.14,285.23,133.56,52.06,18.02,100.06,29.63,146.76,35.49,23.42,2.94,46.25,4.41,68.72,4.41,27.88,0,55.23-2.27,82.52-6.81ZM3638.44,1882.25l-.77-3.93c-212.24,41.72-415.83-60.44-612.72-159.23-33.89-17-68.92-34.58-103.35-51.08-265.74-127.4-553.5-172.31-810.27-126.48-80.01,14.28-160.69,36.27-239.81,65.36-78.29,28.79-155.52,64.7-229.53,106.73-181.55,103.1-397.28,133.42-591.88,83.2-134.82-34.8-258.8-108.98-378.69-180.72-142.8-85.45-290.46-173.8-459.95-198.98-180.15-26.76-361.72-1.56-498.14,69.15l1.84,3.55c135.7-70.33,316.38-95.39,495.71-68.74,168.7,25.06,316.02,113.21,458.48,198.46,120.14,71.89,244.37,146.22,379.75,181.16,60.67,15.66,124.96,23.56,190.03,23.56,37.33,0,74.93-2.6,112.2-7.84,102.32-14.36,203.51-48.71,292.62-99.31,150.1-85.24,307.58-142.99,468.07-171.63,255.95-45.69,542.85-.88,807.84,126.15,34.39,16.49,69.41,34.06,103.28,51.05,98.4,49.37,200.15,100.42,302.25,133.04,55.05,17.59,105.67,28.51,154.74,33.38,19.53,1.94,38.63,2.91,57.44,2.91,34.33,0,67.69-3.24,100.85-9.76ZM3637.94,1862.06l-.88-3.9c-221.6,50.13-438.19-52.9-647.64-152.54-27.53-13.1-56-26.64-83.91-39.56-131.65-60.91-267.12-104.03-402.67-128.14-143.2-25.48-282.48-28.9-413.94-10.18-88.12,12.55-176.11,33.86-261.52,63.33-86.26,29.77-170.02,67.92-248.96,113.4-174.92,100.76-381.77,134.38-567.52,92.23-132.11-29.98-254.44-99.13-372.75-166.01-135.45-76.57-275.51-155.75-434.56-180.29-88.5-13.65-176.31-16.49-260.98-8.42-85.7,8.16-163.63,27.08-231.63,56.22l1.58,3.68c134.3-57.56,313.05-74.88,490.42-47.52,158.33,24.42,298.07,103.42,433.2,179.82,118.56,67.02,241.15,136.32,373.83,166.43,52.8,11.98,107.28,17.87,162.26,17.87,139.45,0,282.06-37.91,408.14-110.54,156.51-90.16,332.54-151.1,509.05-176.24,254.51-36.25,543.73,12.76,814.37,137.99,27.9,12.91,56.35,26.45,83.88,39.54,104.5,49.71,212.56,101.12,320.72,133.05,58.34,17.22,111.82,27.47,163.5,31.34,15.5,1.16,30.73,1.74,45.75,1.74,41.29,0,80.98-4.4,120.27-13.29ZM3637.44,1842.06l-.99-3.88c-231.87,59.23-462.63-45.25-685.8-146.29-20.09-9.1-40.88-18.51-61.24-27.6-134.88-60.24-271.51-103.93-406.1-129.87-144.75-27.89-285-34.72-416.85-20.28-95.94,10.51-191.24,31.06-283.27,61.1-93.86,30.64-184.15,71.1-268.36,120.26-168.63,98.45-366.61,135.36-543.17,101.27-129.69-25.04-250.73-89.23-367.79-151.31-127.77-67.76-259.89-137.82-408.18-161.59-179.08-28.7-352.05-19.31-487.06,26.45l1.28,3.79c134.4-45.55,306.69-54.89,485.14-26.29,147.63,23.66,279.45,93.57,406.93,161.17,117.32,62.21,238.63,126.55,368.91,151.7,89.18,17.22,182.65,16.83,277.83-1.15,93.98-17.75,184.19-51.6,268.11-100.6,166.36-97.12,356.56-159.66,550.04-180.85,255.03-27.93,538.89,23.88,820.89,149.82,20.35,9.09,41.13,18.5,61.22,27.59,178.57,80.85,361.99,163.89,547.31,163.89,46.94,0,94-5.33,141.13-17.37ZM3636.94,1822.51l-1.09-3.85c-243.16,69.1-489.45-37.5-727.63-140.59-11.66-5.04-23.29-10.08-34.9-15.08-138.82-59.84-276.61-104.18-409.53-131.81-146.61-30.46-287.83-40.61-419.77-30.17-210.15,16.64-415.12,80.96-592.75,186-162.69,96.21-351.79,136.42-518.82,110.31-127.66-19.95-242.53-76.61-364.15-136.6-119.65-59.02-243.37-120.05-380.47-142.89-178.2-29.69-349.2-27.87-481.5,5.11l.97,3.88c131.78-32.86,302.2-34.65,479.87-5.05,136.52,22.75,259.97,83.64,379.36,142.53,121.9,60.13,237.03,116.92,365.3,136.97,85.26,13.32,174.62,10.07,265.6-9.67,88.91-19.29,175-53.32,255.87-101.15,177.11-104.73,381.48-168.86,591.03-185.46,250.01-19.8,536.12,36.1,827.4,161.66,11.61,5,23.24,10.04,34.89,15.08,185.78,80.41,376.45,162.95,567.1,162.94,54.43,0,108.9-6.74,163.21-22.17ZM3636.44,1827.6l-1.19-3.82c-255.61,79.88-518.96-29.69-773.64-135.65l-4.38-1.82c-125.14-52.06-270.68-110.65-414.41-147.08-159.02-40.31-296.89-49.04-421.5-26.69-10.26,1.84-20.53,3.67-30.82,5.51-205.66,36.69-418.33,74.63-602.81,185.1-159.43,95.46-335.04,137.85-494.48,119.35-126.15-14.64-240.84-66.73-362.26-121.88-110.93-50.39-225.64-102.49-351-124.21-181.19-31.4-345.77-37.01-475.93-16.21l.63,3.95c129.73-20.73,293.85-15.13,474.61,16.2,124.85,21.64,239.32,73.63,350.03,123.91,121.72,55.28,236.68,107.5,363.45,122.21,24.62,2.86,49.61,4.27,74.87,4.27,139.26,0,286.55-42.97,422.13-124.16,183.85-110.09,396.15-147.96,601.46-184.59,10.29-1.84,20.56-3.67,30.82-5.51,268.82-48.21,547.73,54.57,833.66,173.53l4.38,1.82c125.92,52.39,256.12,106.56,386.42,137.4,70.41,16.66,134.4,25.11,195.63,25.83,2.84.03,5.67.05,8.5.05,65.79,0,126.67-9.02,185.83-27.5ZM3635.93,1826.4l-1.29-3.79c-268.69,91.45-559.69-25.38-793.52-119.26-128.58-51.62-274.31-110.13-417.27-148.21-160.39-42.72-299.39-54.95-424.97-37.4-112.35,15.71-231.73,33.52-347.54,63.19-127.5,32.67-234.54,75.86-327.23,132.05-154.23,93.5-321.2,139.09-470.16,128.39-125.35-9.01-240.7-56.67-362.82-107.12-101.4-41.89-206.24-85.21-319.08-105.57-186.79-33.71-345.04-46.33-470.35-37.52l.28,3.99c124.98-8.79,282.9,3.82,469.36,37.47,112.41,20.29,217.06,63.52,318.26,105.33,122.43,50.58,238.06,98.36,364.06,107.41,77.24,5.55,158.36-3.49,241.11-26.87,78.3-22.12,156.16-56.47,231.41-102.09,199.16-120.74,432.11-161,673.26-194.7,280.76-39.25,577.97,80.08,840.19,185.36,133.99,53.8,265.22,104.36,397.5,131.91,66.7,13.89,129.37,20.84,188.67,20.84,75.01,0,144.62-11.13,210.12-33.42ZM3635.43,1825.26l-1.38-3.75c-259.5,95.44-541.95,2.41-809.01-101.05-13.49-5.22-27.01-10.48-40.57-15.75-130.41-50.7-265.26-103.13-400.62-139.21-152.9-40.76-286.15-54.65-407.39-42.47-102.57,10.3-237.29,26.38-369.75,59.52-133.48,33.4-246.71,79.31-346.18,140.36-151.75,93.15-305.93,140.65-445.84,137.44-125.58-2.91-242.79-46.34-366.89-92.31-90.66-33.59-184.42-68.33-283.63-86.99-137.58-25.88-314.74-55.95-464.77-58.82l-.08,4c149.73,2.87,326.68,32.9,464.11,58.75,98.88,18.6,192.47,53.27,282.98,86.81,124.42,46.1,241.94,89.64,368.18,92.56,140.69,3.24,295.61-44.47,448.02-138.03,218.38-134.05,472.33-175.01,714.23-199.31,269.77-27.1,542.45,78.91,806.16,181.43,13.56,5.27,27.08,10.53,40.57,15.75,188.93,73.19,385.53,141.17,576.56,141.16,79.71,0,158.49-11.85,235.28-40.09ZM775.56,1877.4c130.5-4.03,273-53.51,423.52-147.09,252-156.66,551.7-191.41,755.21-203.92,259.61-15.96,519.63,82.65,771.08,178.01,26.98,10.23,54.88,20.81,82.17,31.01,123.34,46.11,269.16,96.22,415.44,118.34,156.65,23.68,291.4,12.06,411.94-35.52l-1.47-3.72c-270.56,106.81-567.46,13.25-824.51-82.84-27.28-10.2-55.18-20.78-82.15-31.01-251.85-95.51-512.27-194.27-772.75-178.26-149.53,9.19-277.73,27.3-391.92,55.36-139.34,34.24-258.78,83.03-365.15,149.16-149.91,93.2-291.74,142.48-421.53,146.49-127.36,3.94-248.27-35.61-376.27-77.47-78.13-25.55-158.91-51.97-242.86-68.44-20.77-4.08-41.44-8.17-62-12.23-142.55-28.2-277.19-54.84-397.2-67.87l-.43,3.98c119.83,13,254.39,39.63,396.85,67.81,20.56,4.07,41.24,8.16,62.01,12.24,83.7,16.43,164.37,42.81,242.38,68.32,122.41,40.03,238.32,77.94,359.88,77.94,5.9,0,11.83-.09,17.75-.27ZM736.52,1890.2c65.43-5.96,132.25-23.31,204.26-53.06,60.76-25.1,124.46-58.82,194.74-103.08,233.99-147.38,516.69-221.45,796.04-208.54,284.24,13.13,565.68,114.68,837.84,212.89l22.08,7.97c115.75,41.74,268.6,92.14,424.41,111.54,44.79,5.58,87.79,8.37,129.19,8.37,106,0,201.48-18.34,289.31-55.35l-1.55-3.69c-268.51,113.14-575.31,30.82-840-64.63l-22.08-7.97c-272.45-98.31-554.17-199.97-839.02-213.13-139.06-6.42-278.4,8.23-414.14,43.54-137.14,35.68-266.41,91.4-384.22,165.61-151.15,95.2-277.37,144.63-397.23,155.54-131.65,11.99-259.21-24.3-394.25-62.72-62.66-17.83-127.46-36.26-193.48-49.8-79.48-16.3-157.16-34.49-232.29-52.08-77.94-18.25-151.55-35.48-221.34-49.29l-.78,3.92c69.72,13.79,143.3,31.02,221.2,49.26,75.15,17.59,152.86,35.79,232.4,52.1,65.87,13.51,130.6,31.92,193.19,49.73,117.42,33.41,229.18,65.2,343.14,65.2,17.45,0,34.98-.75,52.56-2.35ZM697.5,1902.62c60.86-9.65,123.64-29.9,191.93-61.9,54.02-25.31,110.32-57.17,182.54-103.29,246.28-157.27,543.56-232.97,837.05-213.16,260.11,17.56,516.53,108.63,764.51,196.7,33.42,11.87,67.98,24.14,101.92,36.01,170.13,58.86,307.86,92.08,433.44,104.55,76.65,7.61,149.62,7.22,216.88-1.14,74-9.21,144.03-28.42,208.13-57.12l-1.63-3.65c-278.74,124.76-603.62,40.73-855.5-46.42-33.92-11.86-68.48-24.13-101.89-36-248.23-88.16-504.92-179.32-765.58-196.92-294.35-19.88-592.48,56.05-839.48,213.78-114.11,72.87-238.27,143.24-372.95,164.61-140.43,22.28-279.87-12.2-427.5-48.71-42-10.38-85.42-21.12-128.81-30.44-121.2-26.02-236.13-60.1-347.28-93.05-34.95-10.36-67.96-20.15-100.78-29.57l-1.1,3.85c32.81,9.42,65.81,19.2,100.75,29.56,111.22,32.97,226.23,67.07,347.58,93.12,43.32,9.3,86.72,20.03,128.69,30.41,115.48,28.56,225.95,55.88,336.01,55.88,31.02,0,62.02-2.17,93.08-7.1ZM658.48,1913.43c127.19-29.9,245.53-106.57,349.93-174.22,258.49-167.48,570.32-244.83,878.06-217.78,238.87,20.99,472.99,103.91,699.4,184.1,56.85,20.13,115.63,40.95,173.52,60.44,167.95,56.12,312.66,88.11,442.39,97.79,78.02,5.82,152.34,3.57,220.92-6.68,75.11-11.23,145.99-32.45,210.68-63.07l-1.71-3.62c-291.73,138.11-636.82,50.04-871-28.21-57.85-19.48-116.62-40.29-173.45-60.42-226.64-80.27-461-163.28-700.38-184.32-152.75-13.42-306.8-1.29-457.88,36.07-151.65,37.5-293.87,98.85-422.71,182.33-104.13,67.47-222.16,143.95-348.67,173.69-158.75,37.32-328.5-1.22-492.67-38.49-10.73-2.44-21.47-4.87-32.21-7.29-150.68-33.94-290.61-86.64-425.92-137.61l-16.59-6.25-1.41,3.74,16.59,6.25c135.45,51.02,275.5,103.77,426.45,137.77,10.74,2.42,21.48,4.86,32.2,7.29,82.46,18.72,167.72,38.07,250.31,47.62,36.12,4.17,70.28,6.26,102.79,6.26,50.86,0,97.64-5.12,141.37-15.4ZM619.48,1921.94c99.6-32.09,190.12-92.77,277.66-151.45,15.61-10.47,31.76-21.29,47.73-31.8,270.5-178.01,596.9-257,919.08-222.4,222.44,23.89,438.97,101.38,648.38,176.33,75.56,27.04,153.7,55.01,231.02,80.06,168.43,54.36,316.07,84.13,451.34,91.01,79.39,4.04,155.08-.07,224.96-12.21,76.22-13.25,147.96-36.47,213.22-69.03l-1.79-3.58c-109.86,54.8-234.72,82.2-376.61,82.2-150.19,0-319.44-30.73-509.9-92.2-77.26-25.04-155.37-52.99-230.91-80.02-209.63-75.02-426.39-152.6-649.3-176.54-79.37-8.52-160.53-10.08-241.22-4.64-80,5.4-160.27,17.73-238.57,36.66-159.05,38.44-307.73,102.7-441.91,191.01-15.98,10.52-32.13,21.34-47.75,31.82-87.31,58.52-177.59,119.04-276.66,150.96-164.63,53.04-341.82,23.48-493.43-12.43-154.71-36.65-300.71-101.65-436.99-165.09l-1.69,3.63c136.47,63.53,282.68,128.63,437.75,165.36,98.4,23.31,178.12,36,250.89,39.94,16.2.88,32.04,1.32,47.54,1.32,72.16,0,137.03-9.54,197.15-28.91ZM351.04,1975.59c82.9-2.49,160.1-18.61,229.45-47.92,78.6-33.21,149.08-84.13,217.25-133.37,27.2-19.65,55.33-39.97,83.58-58.88,278.12-186.14,628.06-268.88,960.09-227.01,209.53,26.42,412.02,100.3,607.84,171.75,90.76,33.11,184.6,67.35,278.05,96.48,166.84,52.01,321.7,80.35,460.29,84.25,80.77,2.27,157.82-3.7,228.99-17.75,77.34-15.26,149.93-40.49,215.77-74.98l-1.86-3.54c-229.8,120.39-533.28,123.15-902.01,8.21-93.36-29.1-187.16-63.33-277.87-96.42-196.03-71.52-398.73-145.48-608.71-171.96-82.76-10.44-167.57-13.32-252.09-8.57-83.66,4.7-167.66,16.92-249.67,36.31-82,19.39-162.58,46.09-239.49,79.35-77.7,33.6-152.24,74.17-221.56,120.56-28.3,18.94-56.46,39.28-83.69,58.96-67.98,49.11-138.28,99.9-216.46,132.93-167.59,70.81-343.73,50.45-461.98,20.9-144.31-36.06-276.85-100.57-431.47-186.32l-1.94,3.5c57.22,31.74,132.86,72.66,210.48,107.64,79.07,35.64,151.67,61.5,221.96,79.06,72.22,18.05,143.45,27.16,212.08,27.16,7.69,0,15.35-.11,22.98-.34Z"/>
      </g>
    </g>
  </g>
</svg>