<?xml version="1.0" encoding="UTF-8"?>
<svg xmlns="http://www.w3.org/2000/svg" version="1.1" xmlns:xlink="http://www.w3.org/1999/xlink" viewBox="0 0 3000 2000">
  <defs>
    <style>
      .cls-1 {
        fill: #fff;
      }

      .cls-2 {
        fill: url(#Dégradé_sans_nom);
      }

      .cls-3 {
        display: none;
      }
    </style>
    <linearGradient id="Dégradé_sans_nom" data-name="Dégradé sans nom" x1="-772.6" y1="489.6" x2="3184.8" y2="489.6" gradientTransform="translate(2810.9 2000) rotate(-180)" gradientUnits="userSpaceOnUse">
      <stop offset="0" stop-color="#044ee3"/>
      <stop offset="0" stop-color="#0855e4"/>
      <stop offset=".3" stop-color="#2284ed"/>
      <stop offset=".5" stop-color="#36a8f5"/>
      <stop offset=".7" stop-color="#45c2fa"/>
      <stop offset=".9" stop-color="#4dd2fd"/>
      <stop offset="1" stop-color="#51d8ff"/>
    </linearGradient>
  </defs>
  <!-- Generator: Adobe Illustrator 28.7.1, SVG Export Plug-In . SVG Version: 1.2.0 Build 142)  -->
  <g>
    <g id="Calque_1">
      <g>
        <g id="background" class="cls-3">
          <rect class="cls-1" x="10.2" y="286.7" width="3000" height="2000"/>
        </g>
        <g id="objects">
          <path class="cls-2" d="M1037.7,1448.3c-110,0-220.4-7.2-330.5-21.5-245.1-32-482.2-98.6-704.7-198.1l1.6-3.7c323,144.4,680.2,219,1035.7,219,133.7,0,267.3-10.6,398.6-31.9,223.6-36.3,444.2-103.6,657.6-168.6,130.6-39.8,265.7-81,400.2-114.7,201.4-50.5,379.6-77,544.7-81.1,95-2.3,186.5,3,272,15.9,92.4,13.9,180.8,37.1,262.8,68.8l-1.4,3.7c-145.7-56.4-311.5-84.6-488.7-84.6s-372.6,27.1-588.5,81.2c-134.4,33.7-269.4,74.8-400,114.6-213.5,65-434.2,132.3-658.1,168.7-132.5,21.5-266.7,32.3-401.4,32.3h0ZM569.9,1436.5c149.7,19.9,304.2,29.8,461.4,29.8,76.9,0,154.4-2.4,232.4-7.2,57.8-3.5,110.8-8.2,161.8-14.1,31.6-3.7,63.3-8,94.5-12.8,209.7-32.4,419.2-92.8,614.3-153.1,27-8.4,54.4-16.9,80.9-25.2,90.3-28.2,183.6-57.3,276-83.1,233.2-65.1,424.4-95.5,601.7-95.8h2c173.6,0,334.2,30.3,477.4,90.2l1.5-3.7c-143.7-60.1-304.8-90.5-478.9-90.5h-2c-177.7.3-369.2,30.7-602.8,95.9-92.4,25.7-185.8,54.9-276.1,83.1-26.5,8.3-53.9,16.8-80.9,25.2-195,60.3-404.2,120.6-613.7,153-31.1,4.8-62.8,9.1-94.3,12.8-50.9,5.9-103.8,10.5-161.6,14.1-237.2,14.5-470.4,6.9-693.1-22.7-222.9-29.6-415.4-79.1-588.5-151.3l-1.5,3.7c173.4,72.3,366.3,121.9,589.5,151.6h0ZM551,1464.5c151.6,13.3,317.2,19.9,494.2,19.9,66.7,0,134.9-.9,204.7-2.8,63.6-1.7,115.1-4.1,162-7.4,32.5-2.3,64.3-5.2,94.7-8.5,180.9-20,378.2-64.9,620.7-141.2,53.3-16.8,107.1-34.4,159.2-51.5,65-21.3,132.3-43.4,198.7-63.8,162.8-50.1,378.5-107.9,603-110.2,174.9-1.7,337.1,30.4,482,95.5l1.6-3.7c-73.6-33.1-153.1-58-236-74-79.4-15.3-162.8-22.7-247.7-21.8-96.3,1-196.3,11.9-305.8,33.4-89.6,17.6-187.1,42.7-298.3,76.9-66.4,20.4-133.7,42.4-198.7,63.8-52.1,17.1-105.9,34.7-159.2,51.5-242.3,76.2-439.3,121-619.9,141-30.3,3.4-62.1,6.2-94.5,8.5-46.8,3.3-98.3,5.7-161.8,7.4-254.9,6.9-489.9,1.2-698.4-17.1-175.3-15.3-382.7-41.9-591.6-123l-1.4,3.7c90.8,35.2,186.6,62.4,293,83.1,88.5,17.2,183.7,30,299.7,40.1h0ZM1236,1503.2c25.6.2,49.4.3,72.3.3,30.9,0,60.2-.2,90-1,33.8-.8,64.8-2.2,94.8-4.3,189.7-12.7,394.9-55,627.1-129.2,71.6-22.9,143.5-47.9,213-72.2,47.8-16.6,97.1-33.9,145.8-50.1,176.4-59.3,386.1-120.4,604.3-124.5,173.3-3.2,340.9,31.6,484.7,100.8l1.7-3.6c-73.5-35.3-153.1-61.8-236.5-78.8-80.6-16.4-164.7-23.9-250-22.3-218.7,4.1-428.8,65.4-605.5,124.7-48.6,16.3-98,33.5-145.8,50.2-69.5,24.2-141.4,49.3-213,72.2-232,74.2-436.8,116.4-626.2,129.1-30,2-61,3.4-94.7,4.2-51.8,1.3-102,1.1-162.1.7-29.8-.2-59.8-.4-89.9-.6-204.1-1.2-415.2-2.5-613.9-10.9-190.1-8-392.6-22-594.7-94.7l-1.4,3.8c202.7,72.9,405.6,86.8,595.9,94.9,198.8,8.4,409.9,9.7,614.1,10.9,30.1.2,60.1.4,89.9.6h0ZM1384.7,1526.4c17.4.4,34.2.5,49.9.5s30.6-.2,45.2-.5c194.9-4.6,408.1-44.1,633.6-117.3,85.3-27.7,170.3-59.3,252.5-89.8,35.2-13.1,71.5-26.6,107.3-39.6,188.5-68.7,392.3-133.1,605.6-138.9,174.4-4.7,342.9,32,487.4,106.1l1.8-3.6c-145.1-74.4-314.3-111.2-489.3-106.5-213.8,5.8-418,70.3-606.8,139.1-35.8,13-72.2,26.5-107.3,39.6-82.2,30.5-167.1,62.1-252.3,89.7-225.1,73.1-437.9,112.5-632.4,117.1-29.3.7-60.3.7-94.9,0-40.2-.8-81.4-2.6-121.2-4.3-13.7-.6-27.4-1.2-41.2-1.7-197.8-8-404.2-7.1-603.8-6.2-34.7.2-70.6.3-105.4.4-194.1.5-394.8,1.1-597.9-66.4l-1.3,3.8c90,29.9,187.6,49,298.3,58.4,95.6,8.1,188.9,8.5,300.9,8.2,34.7,0,70.6-.2,105.4-.4,199.6-.8,406-1.7,603.6,6.2,13.8.6,27.5,1.2,41.2,1.7,39.8,1.7,81,3.5,121.3,4.3h0ZM1466.3,1552.4c9.6.2,19.2.3,28.8.3,93.2,0,191.1-8.6,291.2-25.5,104.9-17.7,212.5-44.7,320-80.1,95.9-31.6,190.8-69.2,282.6-105.6,25.6-10.1,52.1-20.6,78.1-30.8,178.3-70,386.9-145.4,606.8-153.3,175.6-6.2,345.1,32.3,490.1,111.4l1.9-3.5c-73-39.8-152.9-69.6-237.5-88.5-82.7-18.5-168.4-26.4-254.6-23.3-220.6,7.9-429.6,83.4-608.2,153.5-26.1,10.2-52.5,20.7-78.2,30.8-91.7,36.3-186.5,73.9-282.3,105.5-220.2,72.6-441.1,109-638.7,105.2-28.7-.5-59.8-1.9-95-4.3-30.6-2-61.9-4.6-92.2-7.1-23-1.9-46.8-3.9-70.5-5.6-250.5-18.5-513.4-9.8-714.6-.2-11.9.6-23.8,1.2-35.6,1.7-192.9,9.4-375.1,18.4-565.3-39.8l-1.2,3.8c190.9,58.4,373.5,49.4,566.7,40,11.8-.6,23.7-1.2,35.6-1.7,201-9.6,463.8-18.2,714.1.2,23.7,1.8,47.5,3.7,70.5,5.6,30.3,2.5,61.6,5.1,92.3,7.1,35.3,2.3,66.5,3.7,95.2,4.3h0ZM1452.9,1577.1c28.5,1.8,57.5,2.6,86.7,2.6,178.8,0,370.5-32.7,559.7-96.1,104.6-35,207.2-78.3,306.4-120.2,18.1-7.6,36.8-15.6,55.2-23.3,189-79.6,391.6-158.2,608.1-167.6,174.5-7.5,349.5,33.9,492.8,116.7l2-3.5c-72.7-42-152.8-73.4-238-93.3-83.7-19.6-170.1-27.6-257-23.8-217.2,9.5-420.2,88.2-609.5,167.9-18.4,7.7-37.1,15.6-55.2,23.3-99.2,41.9-201.7,85.2-306.1,120.1-219.7,73.5-442.7,105.7-644.9,93.2-28.5-1.8-58.8-4.5-95.2-8.6-24.3-2.7-49.2-5.8-73.2-8.8-29.3-3.6-59.5-7.4-89.9-10.6-203.7-21.7-445.9-19.9-719.9,5.4-22.6,2.1-45.5,4.3-67.6,6.5-182.1,17.9-354.2,34.8-536.6-16.3l-1.1,3.8c82.9,23.2,168.4,34.1,268.7,34.1h1.6c89.1-.1,175.9-8.6,267.7-17.7,22.1-2.2,44.9-4.4,67.6-6.5,273.8-25.3,515.7-27.1,719.1-5.4,30.3,3.2,60.6,7,89.8,10.6,24,3,48.8,6.1,73.2,8.8,36.5,4.1,66.8,6.8,95.4,8.6h0ZM-152.4,1587c66.6,17,134.5,25.2,210.5,25.2,16.6,0,33.7-.4,51.2-1.2,85.8-3.8,169-16.2,257.1-29.4,29.4-4.4,59.8-8.9,90-13.1,184.9-25.3,460.7-47.8,724.2-11,35,4.9,69.8,10.7,103.5,16.3,19.6,3.3,39.9,6.7,59.8,9.8,37.1,5.8,67.5,9.9,95.6,12.8,103.8,10.8,213.4,9,325.8-5.3,109.4-14,219.4-39.6,327.1-76.1,111.8-37.9,220.5-86.7,325.8-134,12.3-5.5,24.5-11,36.8-16.5,199.3-89.6,395.8-170.9,609.4-182,176-9,352,34.3,495.4,121.9l2.1-3.4c-144.1-88.1-320.9-131.6-497.7-122.5-214.3,11.1-411.2,92.6-610.8,182.3-12.3,5.5-24.5,11-36.8,16.5-105.1,47.2-213.8,96-325.4,133.8-220,74.7-445.2,102.7-651.2,81.3-28-2.9-58.4-7-95.4-12.8-19.9-3.1-40.2-6.5-59.7-9.8-33.7-5.6-68.5-11.5-103.6-16.3-264-36.8-540.1-14.3-725.3,11-30.2,4.1-60.6,8.7-90.1,13.1-174.7,26.1-339.8,50.7-517.2,5.5l-1,3.9h0ZM-174.6,1627.6c53.9,12.4,110.2,18.6,170.3,18.6,27.7,0,56.1-1.3,85.6-3.9,83.6-7.4,167.9-24.3,249.5-40.7,34.8-7,70.8-14.2,106.6-20.7,183.4-33.2,458.9-63.1,729.3-16.6,38.6,6.6,76.7,14.7,113.5,22.4,16.4,3.5,33.3,7,50,10.4,38.2,7.7,67.7,13,95.8,17.1,104.6,15.3,215.2,16.9,328.7,4.6,111.3-12,222.5-36.9,330.6-74.1,117.9-40.6,231.8-94.8,341.8-147.2,7.2-3.4,14.5-6.9,21.7-10.3,209.2-100,399.5-183.8,610.7-196.3,177.7-10.5,354.6,34.7,498.1,127.2l2.2-3.4c-72-46.4-152.4-81.1-238.9-103-85.5-21.7-173.6-30-261.6-24.8-98.8,5.9-201.7,28.2-314.5,68.1-101.9,36.1-202.9,83.3-297.7,128.6-7.2,3.4-14.5,6.9-21.7,10.3-110,52.4-223.7,106.5-341.4,147-217.7,74.9-451.2,99.5-657.4,69.3-28-4.1-57.5-9.4-95.6-17.1-16.6-3.4-33.6-7-49.9-10.4-36.9-7.8-75.1-15.8-113.7-22.5-112.3-19.3-236.1-26.9-367.9-22.7-118.1,3.8-240.1,17.1-362.7,39.3-35.8,6.5-71.8,13.7-106.6,20.7-169.4,34.1-329.4,66.3-503.8,26.1l-.9,3.9h0ZM-196.7,1667.3c44.3,9.2,90.2,13.8,138.4,13.8s74.2-2.6,113.7-7.8c82-10.8,164.3-31.7,243.9-51.9,38.9-9.9,79.1-20.1,119.2-29.1,258.4-58.3,519.2-66.2,734.3-22.2,41.3,8.4,81.9,18.8,121.2,28.8,14,3.6,28.4,7.2,42.6,10.8,26.1,6.5,60.5,14.7,96,21.4,209.7,39.4,446.2,19,665.7-57.5,123.3-42.9,241.3-102.4,355.4-160l9.1-4.6c181-91.6,386.1-195.5,612-210.7,179.4-11.9,357.3,35.1,500.8,132.5l2.3-3.3c-71.7-48.6-152.2-84.9-239.4-107.9-86.4-22.7-175.2-31.3-263.9-25.3-99.4,6.7-202.8,30.9-316,73.9-98.7,37.5-193.1,84.3-297.5,137.2l-9.1,4.6c-114,57.5-231.9,116.9-354.9,159.8-218.9,76.3-454.6,96.7-663.7,57.4-35.4-6.7-69.8-14.9-95.8-21.3-14.2-3.5-28.6-7.2-42.5-10.7-39.3-10-80-20.4-121.4-28.8-215.7-44-477-36.1-736,22.2-40.1,9-80.4,19.2-119.3,29.1-165.5,42-321.8,81.7-494.2,46l-.8,3.9h0ZM-218.9,1706.6c36.6,6.7,74.1,10.1,113,10.1,43.5,0,88.8-4.2,136.5-12.6,80.8-14.2,161.6-39,239.8-63,42.1-12.9,85.7-26.3,129.1-38,258.2-69.6,520.8-79.5,739.4-27.8,43.5,10.3,86.1,23,127.2,35.3,12,3.6,24.5,7.3,36.8,10.9,28,8.2,61.3,17.7,96.2,25.7,105.9,24.3,218.4,32.6,334.4,24.5,114.9-7.9,228.5-31.5,337.7-70.1,128-45.2,248.7-109.4,365.4-171.6,191.6-102.4,389.6-208.4,613.3-225.1,178.6-13.2,362.1,37,503.5,137.8l2.3-3.3c-71.3-50.8-152-88.8-239.9-112.7-87.3-23.8-176.9-32.5-266.2-25.8-224.5,16.8-423,122.9-614.9,225.5-116.6,62.1-237.1,126.3-364.9,171.3-220.4,77.9-458.3,94-669.9,45.4-34.7-8-68-17.4-96-25.6-12.2-3.6-24.7-7.3-36.7-10.9-41.2-12.3-83.9-25.1-127.5-35.4-114.1-27-239.8-37.3-373.7-30.7-122.3,6-245.9,25.7-367.7,58.5-43.5,11.7-87,25.1-129.2,38-162.6,49.9-316.1,97-487.5,65.4l-.7,3.9h0ZM-241,1745.4c30.1,4.9,60.8,7.3,92.4,7.3,49.4,0,100.9-6,155.7-18,80-17.6,159.6-46.2,236.7-74,44.7-16.1,90.8-32.7,136.9-47.1,254.7-79.8,526-92,744.5-33.4,45.2,12.1,89.4,27.3,132.1,41.9,10.5,3.6,21.5,7.4,32.2,11,28.3,9.6,61.9,20.6,96.4,29.9,106.5,28.8,220,40.4,337.3,34.5,116.6-5.9,231.4-28.8,341.3-68.1,132-47.2,256.5-117,366.3-178.6l5.4-3.1c190.5-107.3,387.4-218.2,609.1-236.4,180.4-14.7,364.9,37.4,506.2,143.1l2.4-3.2c-142-106.2-327.5-158.7-508.9-143.9-99.9,8.2-203.3,35.8-316.1,84.3-100.5,43.2-199.2,98.8-294.7,152.6l-5.4,3.1c-109.7,61.5-234,131.3-365.7,178.4-222.2,79.5-462.3,91.4-676.2,33.5-34.4-9.3-67.9-20.3-96.1-29.9-10.7-3.6-21.6-7.4-32.2-11-42.8-14.7-87-29.9-132.3-42-114.8-30.8-241.5-42.4-376.6-34.6-122.3,7-250.3,30.6-370.1,68.1-46.2,14.5-92.4,31.1-137.1,47.2-160.3,57.7-311.7,112.2-482.7,84.5l-.6,3.9h0ZM-263.2,1783.8c24.6,3.5,49.6,5.2,75.1,5.2,54.5,0,111.4-7.9,172.1-23.9,79.4-20.9,158.2-53.5,234.3-84.9,46.7-19.3,95.1-39.3,143.3-56.5,255.1-91.1,528.3-105.3,749.6-39.1,46.7,14,92.1,31.6,136,48.6,9.5,3.7,19,7.4,28.5,11,28.6,10.9,62.4,23.6,96.6,34.2,107,33.3,221.5,48.3,340.2,44.4,118.2-3.8,234.2-26.1,344.8-66.1,125.3-45.4,240.4-110.9,367.3-185.7l14.6-8.7c187.3-110.8,381-225.5,601.3-245.1,182.3-16.2,367.8,37.9,508.9,148.4l2.5-3.2c-69.5-54.4-152.8-96.8-240.8-122.4-87.7-25.5-181.4-34.8-270.9-26.8-99.3,8.9-201.6,37.6-312.8,87.8-99.1,44.8-196.3,102.3-290.2,157.8l-14.6,8.7c-126.7,74.7-241.7,140.1-366.6,185.4-220.9,80-469.6,87.9-682.4,21.6-34.1-10.6-67.8-23.2-96.3-34.1-9.5-3.7-19-7.3-28.5-11-44-17-89.4-34.7-136.3-48.7-115.5-34.6-243.2-47.6-379.5-38.6-124,8.1-252.9,35-372.6,77.8-48.4,17.3-96.7,37.2-143.5,56.6-151.6,62.6-308.3,127.4-479.4,103.4l-.6,4h0ZM-285.3,1822.1c19.9,2.4,40,3.6,60.4,3.6,59.1,0,120.7-10,186.6-30.2,79-24.2,157.1-60.6,232.5-95.8,48.4-22.6,98.5-45.9,148.6-66,255.7-102.4,530.7-118.7,754.7-44.7,47.9,15.8,94.3,35.9,139.2,55.3,8.5,3.7,17,7.4,25.5,11,30.2,12.9,62.9,26.6,96.7,38.5,215.6,75.9,467.6,72.3,691.4-9.7,127.9-46.8,247.1-117.9,368.2-192.7,7.5-4.7,15.1-9.4,22.6-14,184.5-114.5,375.4-233,594.5-254.1,184.3-17.7,370.8,38.3,511.6,153.7l2.5-3.1c-69.1-56.6-152.5-100.6-241.3-127.2-88.6-26.6-183-36-273.2-27.4-98.8,9.5-200.2,39.4-310.1,91.5-97.9,46.4-193.7,105.8-286.2,163.2-7.5,4.7-15.1,9.4-22.6,14-120.9,74.7-240,145.6-367.5,192.4-222.9,81.7-474,85.2-688.7,9.7-33.8-11.9-66.3-25.5-96.5-38.4-8.5-3.7-17-7.3-25.5-11-45-19.4-91.5-39.5-139.6-55.4-116.2-38.4-244.8-52.8-382.4-42.6-125.7,9.2-255.4,39.4-375.1,87.4-50.2,20.1-100.3,43.5-148.8,66.1-150.3,70.1-305.8,142.6-477.3,122.2l-.5,4h0ZM-307.5,1860c15.7,1.5,31.6,2.3,47.6,2.3,63.2,0,129-12.2,199.5-36.8,78.8-27.6,156.3-67.8,231.2-106.8,49.8-25.9,101.3-52.7,152.9-75.6,252.6-112.1,536.6-130.9,759.8-50.3,49,17.7,96.2,40.2,141.9,62,7.7,3.7,15.4,7.3,23.1,11,30.4,14.4,63.3,29.6,96.9,42.8,53.7,21.1,110.6,37.2,169,48,57.7,10.7,117.2,16.2,176.9,16.4,59.7.2,119.7-4.9,178.4-15.3,59.4-10.4,117.8-26.2,173.5-46.8,130.3-48.3,249-122.1,369.1-199.8,9.9-6.4,19.8-12.8,29.7-19.3,182.1-118.3,370.4-240.7,588.8-263.3,183.6-18.9,375.8,40.5,514.3,159l2.6-3c-68.7-58.8-152.3-104.4-241.8-132.1-89.4-27.6-184.6-37.2-275.5-27.9-98.5,10.2-199.2,41.3-307.9,95.1-96.9,48-191.4,109.4-282.7,168.7-9.9,6.4-19.8,12.8-29.7,19.2-120,77.6-238.4,151.2-368.4,199.4-225.1,83.5-478.4,82.7-695-2.3-33.5-13.2-66.3-28.3-96.7-42.7-7.7-3.7-15.4-7.3-23.1-11-45.8-21.8-93.1-44.4-142.3-62.2-59.2-21.4-122.9-36.1-189.1-43.8-63.2-7.3-129.2-8.3-196.1-2.8-127.3,10.3-257.8,43.9-377.5,97-51.7,22.9-103.3,49.7-153.1,75.7-149.4,77.6-303.8,157.9-476.1,140.9l-.4,4h0ZM-329.6,1897.9c12.1,1,24.2,1.4,36.4,1.4,67.1,0,136.5-14.4,211.3-43.7,78.6-30.9,155.7-75,230.2-117.7,51-29.2,103.7-59.5,156.6-85.2,253.4-123.4,539.3-144.3,764.9-55.9,49.9,19.6,97.9,44.6,144.2,68.8,7,3.7,14,7.3,21,10.9,30.7,15.9,63.6,32.6,97.1,47.1,53.9,23.3,111.1,41.4,170.1,53.9,58.2,12.3,118.4,19.2,178.7,20.4,60.3,1.2,121-3.2,180.4-13.2,60.1-10.1,119-25.9,175.1-46.9,132.5-49.7,250.7-126.2,370.1-206.8,12-8.1,23.9-16.2,35.9-24.3,179.9-122.2,365.9-248.5,583.9-272.5,185.6-20.4,378.8,41,517,164.3l2.7-3c-139-124-333.4-185.8-520.1-165.3-98.3,10.8-198.4,43.2-306,98.8-96,49.7-189.4,113-279.6,174.4-12,8.1-23.9,16.2-35.9,24.3-119.2,80.5-237.1,156.8-369.2,206.4-227.4,85.3-483,80.1-701.2-14.2-33.4-14.4-66.3-31.1-96.9-46.9-7-3.6-14-7.3-21-10.9-46.5-24.2-94.6-49.3-144.6-68.9-59.5-23.3-123.5-39.4-190.3-47.7-63.7-8-130.2-8.9-197.8-2.9-128.8,11.5-260.2,48.3-380,106.6-52.9,25.8-105.7,56-156.8,85.3-148.6,85.2-302.3,173.2-475.6,159.5l-.3,4h0ZM-351.8,1935.6c8.8.5,17.6.8,26.4.8,70.6,0,143.6-16.7,222-50.9,78.6-34.2,155.3-82.2,229.6-128.7,52-32.6,105.8-66.2,159.6-94.8,254.3-134.8,542.1-157.8,770-61.5,50.7,21.4,99.2,48.9,146.2,75.5,6.4,3.7,12.9,7.3,19.3,10.9,35.6,20.1,65.8,36.5,97.3,51.3,54.1,25.5,111.7,45.6,171.2,59.8,58.7,14,119.5,22.2,180.5,24.5,61,2.2,122.3-1.5,182.3-11.1,60.8-9.7,120.2-25.5,176.7-47,134.5-51,257-133.6,371-213.8,13.8-9.7,27.9-19.7,41.4-29.3,177.9-126.1,361.9-256.5,579.6-281.9,187.6-21.9,381.9,41.5,519.7,169.6l2.7-2.9c-67.8-63-151.7-112-242.7-141.7-91-29.7-187.8-39.7-280.1-28.9-52.6,6.2-104.2,18.2-157.6,36.8-47.6,16.6-95.7,38.1-147,65.7-95.2,51.3-187.6,116.8-276.9,180.1-13.6,9.6-27.6,19.6-41.4,29.3-113.8,80.1-236,162.5-370.1,213.4-226.4,85.9-490.9,76.1-707.5-26.1-31.4-14.8-61.5-31.2-97.1-51.2-6.4-3.6-12.9-7.3-19.3-10.9-47.1-26.6-95.7-54.2-146.6-75.7-59.7-25.3-124.2-42.6-191.5-51.6-64.2-8.6-131.4-9.6-199.5-3-130.4,12.6-262.6,52.8-382.4,116.3-54,28.6-107.8,62.3-159.9,94.9-148.1,92.7-301.2,188.6-475.6,178.2l-.2,4h0ZM-373.9,1973.2c5.8.2,11.6.3,17.4.3,74,0,150.1-19.1,232.1-58.2,78.6-37.5,155.1-89.4,229.1-139.7,52.8-35.9,107.5-73,162.3-104.4,251.4-144,548.4-169.7,775.1-67.1,51.4,23.3,100.4,53.2,147.9,82.2,37.3,22.8,75.9,46.3,115.4,66.5,107.7,55.1,230.3,87.7,354.5,94.3,124.2,6.6,249.6-12.8,362.5-56.1,151.5-58.1,287.2-158.2,418.3-255.1,176.2-130.1,358.3-264.5,576-291.4,189.7-23.5,385,41.9,522.4,174.8l2.8-2.9c-67.4-65.2-151.5-115.9-243.2-146.6-91.7-30.7-189.4-40.9-282.4-29.4-52.6,6.5-104,19-157.3,38.4-47.4,17.2-95.2,39.4-146.1,68-94.5,53-186,120.5-274.4,185.8-131,96.7-266.4,196.7-417.4,254.6-228.8,87.7-495.6,73.5-713.8-38-39.4-20.2-77.9-43.7-115.2-66.4-47.6-29-96.7-59-148.3-82.4-60-27.2-124.8-45.8-192.7-55.5-64.8-9.2-132.4-10.3-201.1-3.2-131.9,13.7-265,57.2-384.9,125.9-54.9,31.5-109.6,68.6-162.5,104.6-147.7,100.3-300.3,204-476.1,196.8l-.2,4h0ZM-373.4,1953.6c11,.8,22,1.2,32.9,1.2,33,0,66.1-3.6,100.3-10.9,40.6-8.7,82-22.4,126.5-42,82.5-36.3,163.2-87.7,241.2-137.4,50.7-32.3,103.1-65.7,155.4-94.5,251.5-139.3,543.7-168.8,781.7-78.9,77.1,29.1,151.8,70.2,224.1,109.9,26.2,14.4,53.2,29.2,80.1,43.4,103.4,54.4,221.7,87.5,341.9,95.5,19.5,1.3,39,1.9,58.6,1.9,100.2,0,200.2-17.1,292.1-50.2,147.6-53.7,280.4-148.4,408.8-240,170-121.3,345.8-246.7,554.3-273.1,186.6-24.2,379.9,33.2,517,153.6l2.6-3c-67.5-59.2-150.9-104.7-241.3-131.6-90.5-26.9-187-34.9-278.9-23-94,11.9-189.4,44.8-291.5,100.4-91.1,49.6-179.3,112.6-264.5,173.4-128.2,91.5-260.7,186-407.8,239.5-223.1,80.3-480.8,62.7-689.4-47.1-26.9-14.1-53.9-29-80.1-43.4-72.4-39.8-147.3-80.9-224.6-110.1-61.8-23.3-127.7-39-195.9-46.5-65.6-7.2-133.7-7-202.2.8-132.7,15-266.5,58.2-387,124.9-52.4,28.9-104.9,62.3-155.6,94.6-155.8,99.2-316.9,201.7-498.5,188.5l-.3,4h0ZM-372.9,1933.7c16.2,1.7,32.4,2.5,48.6,2.5,29.4,0,59.2-2.8,89.9-8.4,42.4-7.7,85.7-20.7,132.4-39.7,86.6-35.2,171.9-86.1,254.3-135.4,47.9-28.7,97.5-58.3,146.7-84.4,253.7-135.8,541-168.9,788.2-90.7,116.6,36.9,229.8,95.7,345.2,157.8,99.7,53.7,213.6,87.1,329.6,96.8,115.2,9.5,232.3-4.4,338.6-40.4,144.7-49,275.3-138.7,401.6-225.4,163.1-112.1,331.8-227.9,530.3-254.3,184.1-24.5,375.4,25,511.7,132.4l2.5-3.1c-137.1-108-329.5-157.8-514.7-133.2-89.5,11.9-180.6,42.8-278.5,94.6-87.2,46.1-171.8,104.2-253.6,160.4-126.1,86.6-256.4,176.2-400.6,224.9-215.7,73-464.3,52-665-56.1-115.5-62.2-228.9-121.2-345.9-158.1-63.2-20-129.9-32.9-198.4-38.4-66.4-5.3-134.7-3.7-203.3,4.8-133.5,16.5-268.2,59.6-389.6,124.6-49.3,26.2-98.9,55.8-146.9,84.5-164.6,98.4-334.7,200.1-522.8,180.4l-.4,4h0ZM-372.4,1913.7c21.6,2.9,43.3,4.4,65.2,4.4s52.4-2.1,79.6-6.2c44.5-6.8,90.1-19.2,139.5-37.7,91.5-34.3,182-85.3,269.5-134.5,43.8-24.6,89-50.1,133.7-73.1,254.9-131.2,544.6-168.5,794.8-102.5,117.2,30.9,243.5,84.1,386.1,162.4,96,52.8,205.7,86.5,317.2,97.7,27.8,2.8,55.8,4.2,83.7,4.2,83.2,0,165.8-12.3,242.8-36.5,141.4-44.4,269.7-128.9,393.8-210.7,156.4-103.1,318.1-209.7,506.9-235.7,181.4-25,370.7,16.5,506.3,111.2l2.3-3.3c-67.4-47-149.5-82.1-237.5-101.4-87.8-19.3-181.8-22.9-271.7-10.5-85.1,11.7-172,40.7-265.7,88.6-83.5,42.7-164.5,96.1-242.9,147.7-123.8,81.6-251.9,166-392.8,210.2-208.1,65.3-447.6,40.9-640.6-65.1-142.9-78.5-269.5-131.8-387-162.8-127.9-33.8-264.1-41.1-404.9-21.9-67.4,9.2-135.1,24.5-201.3,45.6-65.6,20.9-130,47.5-191.4,79.1-44.8,23-90,48.5-133.8,73.2-174.8,98.4-355.5,200.1-551.3,173.6l-.5,4h0ZM-372,1893.6c27.3,4.5,54.6,6.8,82.5,6.8,22.5,0,45.3-1.5,68.7-4.4,46.7-5.9,94.7-17.5,146.8-35.5,96.6-33.4,192.5-84.3,285.2-133.6,39.3-20.8,79.8-42.4,119.8-62.2,261-129.6,545.6-170.2,801.3-114.3,139.9,30.6,283.5,86.8,427.1,167,92.5,51.7,197.9,85.8,304.9,98.6,106.5,12.7,215.2,4.4,314.4-24.1,138.3-39.7,264.5-119.1,386.4-195.9,149.5-94.1,304.2-191.5,483-217.1,181.6-26,364.2,6.8,501,90l2.1-3.4c-67.3-40.9-148.8-70.8-235.5-86.3-86.5-15.5-179.2-16.9-268.1-4.2-80.6,11.5-163.3,38.5-252.7,82.6-79.6,39.2-157,87.9-231.9,135.1-121.8,76.7-247.7,155.9-385.4,195.4-200.1,57.4-430.5,29.7-616.2-74.2-143.9-80.4-287.9-136.8-428.2-167.4-129.5-28.3-266.8-32-408-10.8-136,20.3-269.2,62.6-395.9,125.5-40,19.9-80.6,41.4-119.9,62.3-185.4,98.4-377,200.1-580.7,166.2l-.7,3.9h0ZM-371.4,1873.4c33.2,6.5,66.5,9.8,100.9,9.8s37.9-1,57.4-2.9c49.1-4.9,99.7-15.8,154.7-33.4,102.1-32.6,203.9-83.7,302.3-133,33.9-17,68.9-34.6,103.3-51.1,265-127,551.9-171.8,807.8-126.2,160.5,28.6,318,86.4,468.1,171.6,89.1,50.6,190.3,84.9,292.6,99.3,37.3,5.2,74.9,7.8,112.2,7.8,65.1,0,129.4-7.9,190-23.6,135.4-34.9,259.6-109.3,379.8-181.2,142.5-85.2,289.8-173.4,458.5-198.5,179.3-26.7,360-1.6,495.7,68.7l1.8-3.6c-136.4-70.7-318-95.9-498.1-69.2-169.5,25.2-317.2,113.5-460,199-119.9,71.7-243.9,145.9-378.7,180.7-194.6,50.2-410.3,19.9-591.9-83.2-74-42-151.2-77.9-229.5-106.7-79.1-29.1-159.8-51.1-239.8-65.4-256.8-45.8-544.5-.9-810.3,126.5-34.4,16.5-69.5,34.1-103.4,51.1-196.9,98.8-400.5,200.9-612.7,159.2l-.8,3.9h0ZM-371,1853.2c39.3,8.9,79,13.3,120.3,13.3,15,0,30.3-.6,45.8-1.7,51.7-3.9,105.2-14.1,163.5-31.3,108.2-31.9,216.2-83.3,320.7-133.1,27.5-13.1,56-26.6,83.9-39.5,270.6-125.2,559.9-174.2,814.4-138,176.5,25.1,352.5,86.1,509.1,176.2,126.1,72.6,268.7,110.5,408.1,110.5,55,0,109.5-5.9,162.3-17.9,132.7-30.1,255.3-99.4,373.8-166.4,135.1-76.4,274.9-155.4,433.2-179.8,177.4-27.4,356.1-10,490.4,47.5l1.6-3.7c-68-29.1-145.9-48.1-231.6-56.2-84.7-8.1-172.5-5.2-261,8.4-159,24.5-299.1,103.7-434.6,180.3-118.3,66.9-240.6,136-372.8,166-185.8,42.2-392.6,8.5-567.5-92.2-78.9-45.5-162.7-83.6-249-113.4-85.4-29.5-173.4-50.8-261.5-63.3-131.5-18.7-270.7-15.3-413.9,10.2-135.6,24.1-271,67.2-402.7,128.1-27.9,12.9-56.4,26.5-83.9,39.6-209.5,99.6-426,202.7-647.6,152.5l-.9,3.9h0ZM-370.4,1833.1c47.1,12,94.2,17.4,141.1,17.4,185.3,0,368.7-83,547.3-163.9,20.1-9.1,40.9-18.5,61.2-27.6,282-125.9,565.9-177.7,820.9-149.8,193.5,21.2,383.7,83.7,550,180.8,83.9,49,174.1,82.8,268.1,100.6,95.2,18,188.6,18.4,277.8,1.2,130.3-25.1,251.6-89.5,368.9-151.7,127.5-67.6,259.3-137.5,406.9-161.2,178.5-28.6,350.7-19.3,485.1,26.3l1.3-3.8c-135-45.8-308-55.1-487.1-26.4-148.3,23.8-280.4,93.8-408.2,161.6-117.1,62.1-238.1,126.3-367.8,151.3-176.6,34.1-374.5-2.8-543.2-101.3-84.2-49.2-174.5-89.6-268.4-120.3-92-30-187.3-50.6-283.3-61.1-131.8-14.4-272.1-7.6-416.8,20.3-134.6,25.9-271.2,69.6-406.1,129.9-20.4,9.1-41.1,18.5-61.2,27.6-223.2,101-453.9,205.5-685.8,146.3l-1,3.9h0ZM-369.9,1813.6c54.3,15.4,108.8,22.2,163.2,22.2,190.7,0,381.3-82.5,567.1-162.9,11.6-5,23.3-10.1,34.9-15.1,291.3-125.6,577.4-181.5,827.4-161.7,209.6,16.6,413.9,80.7,591,185.5,80.9,47.8,167,81.9,255.9,101.2,91,19.7,180.3,23,265.6,9.7,128.3-20,243.4-76.8,365.3-137,119.4-58.9,242.8-119.8,379.4-142.5,177.7-29.6,348.1-27.8,479.9,5.1l1-3.9c-132.3-33-303.3-34.8-481.5-5.1-137.1,22.8-260.8,83.9-380.5,142.9-121.6,60-236.5,116.7-364.1,136.6-167,26.1-356.1-14.1-518.8-110.3-177.6-105-382.6-169.4-592.7-186-131.9-10.4-273.2-.3-419.8,30.2-132.9,27.6-270.7,72-409.5,131.8-11.6,5-23.2,10-34.9,15.1-238.2,103.1-484.5,209.7-727.6,140.6l-1.1,3.8h0ZM-369.5,1818.7c59.2,18.5,120,27.5,185.8,27.5,2.8,0,5.7,0,8.5,0,61.2-.7,125.2-9.2,195.6-25.8,130.3-30.8,260.5-85,386.4-137.4l4.4-1.8c285.9-119,564.8-221.7,833.7-173.5,10.3,1.8,20.5,3.7,30.8,5.5,205.3,36.6,417.6,74.5,601.5,184.6,135.6,81.2,282.9,124.2,422.1,124.2,25.3,0,50.3-1.4,74.9-4.3,126.8-14.7,241.7-66.9,363.5-122.2,110.7-50.3,225.2-102.3,350-123.9,180.8-31.3,344.9-36.9,474.6-16.2l.6-3.9c-130.2-20.8-294.7-15.2-475.9,16.2-125.4,21.7-240.1,73.8-351,124.2-121.4,55.2-236.1,107.2-362.3,121.9-159.4,18.5-335-23.9-494.5-119.3-184.5-110.5-397.1-148.4-602.8-185.1-10.3-1.8-20.6-3.7-30.8-5.5-124.6-22.4-262.5-13.6-421.5,26.7-143.7,36.4-289.3,95-414.4,147.1l-4.4,1.8c-254.7,106-518,215.5-773.6,135.7l-1.2,3.8h0ZM-368.9,1817.5c65.5,22.3,135.1,33.4,210.1,33.4,59.3,0,122-6.9,188.7-20.8,132.3-27.6,263.5-78.1,397.5-131.9,262.2-105.3,559.4-224.6,840.2-185.4,241.2,33.7,474.1,74,673.3,194.7,75.2,45.6,153.1,80,231.4,102.1,82.7,23.4,163.9,32.4,241.1,26.9,126-9.1,241.6-56.8,364.1-107.4,101.2-41.8,205.9-85,318.3-105.3,186.5-33.7,344.4-46.3,469.4-37.5l.3-4c-125.3-8.8-283.6,3.8-470.4,37.5-112.8,20.4-217.7,63.7-319.1,105.6-122.1,50.4-237.5,98.1-362.8,107.1-149,10.7-315.9-34.9-470.2-128.4-92.7-56.2-199.7-99.4-327.2-132.1-115.8-29.7-235.2-47.5-347.5-63.2-125.6-17.5-264.6-5.3-425,37.4-143,38.1-288.7,96.6-417.3,148.2-233.8,93.9-524.8,210.7-793.5,119.3l-1.3,3.8h0ZM-368.4,1816.4c76.8,28.2,155.6,40.1,235.3,40.1,191,0,387.6-68,576.6-141.2,13.5-5.2,27-10.5,40.6-15.7,263.7-102.5,536.4-208.5,806.2-181.4,241.9,24.3,495.8,65.3,714.2,199.3,152.4,93.6,307.3,141.3,448,138,126.2-2.9,243.8-46.5,368.2-92.6,90.5-33.5,184.1-68.2,283-86.8,137.4-25.8,314.4-55.9,464.1-58.7v-4c-150.1,2.9-327.3,32.9-464.9,58.8-99.2,18.7-193,53.4-283.6,87-124.1,46-241.3,89.4-366.9,92.3-139.9,3.2-294.1-44.3-445.8-137.4-99.5-61.1-212.7-107-346.2-140.4-132.5-33.1-267.2-49.2-369.7-59.5-121.2-12.2-254.5,1.7-407.4,42.5-135.4,36.1-270.2,88.5-400.6,139.2-13.6,5.3-27.1,10.5-40.6,15.7-267.1,103.5-549.5,196.5-809,101.1l-1.4,3.7h0ZM2491.4,1868.5c5.9.2,11.9.3,17.7.3,121.6,0,237.5-37.9,359.9-77.9,78-25.5,158.7-51.9,242.4-68.3,20.8-4.1,41.4-8.2,62-12.2,142.5-28.2,277-54.8,396.9-67.8l-.4-4c-120,13-254.7,39.7-397.2,67.9-20.6,4.1-41.2,8.2-62,12.2-83.9,16.5-164.7,42.9-242.9,68.4-128,41.9-248.9,81.4-376.3,77.5-129.8-4-271.6-53.3-421.5-146.5-106.4-66.1-225.8-114.9-365.2-149.2-114.2-28.1-242.4-46.2-391.9-55.4-260.5-16-520.9,82.7-772.8,178.3-27,10.2-54.9,20.8-82.1,31-257.1,96.1-553.9,189.6-824.5,82.8l-1.5,3.7c120.5,47.6,255.3,59.2,411.9,35.5,146.3-22.1,292.1-72.2,415.4-118.3,27.3-10.2,55.2-20.8,82.2-31,251.5-95.4,511.5-194,771.1-178,203.5,12.5,503.2,47.3,755.2,203.9,150.5,93.6,293,143.1,423.5,147.1h0ZM2530.5,1881.3c17.6,1.6,35.1,2.3,52.6,2.3,114,0,225.7-31.8,343.1-65.2,62.6-17.8,127.3-36.2,193.2-49.7,79.5-16.3,157.3-34.5,232.4-52.1,77.9-18.2,151.5-35.5,221.2-49.3l-.8-3.9c-69.8,13.8-143.4,31-221.3,49.3-75.1,17.6-152.8,35.8-232.3,52.1-66,13.5-130.8,32-193.5,49.8-135,38.4-262.6,74.7-394.3,62.7-119.9-10.9-246.1-60.3-397.2-155.5-117.8-74.2-247.1-129.9-384.2-165.6-135.7-35.3-275.1-50-414.1-43.5-284.9,13.2-566.6,114.8-839,213.1l-22.1,8c-264.7,95.4-571.5,177.8-840,64.6l-1.6,3.7c87.8,37,183.3,55.3,289.3,55.3,41.4,0,84.4-2.8,129.2-8.4,155.8-19.4,308.7-69.8,424.4-111.5l22.1-8c272.2-98.2,553.6-199.8,837.8-212.9,279.4-12.9,562.1,61.2,796,208.5,70.3,44.3,134,78,194.7,103.1,72,29.8,138.8,47.1,204.3,53.1h0ZM2569.5,1893.7c31.1,4.9,62.1,7.1,93.1,7.1,110.1,0,220.5-27.3,336-55.9,42-10.4,85.4-21.1,128.7-30.4,121.3-26.1,236.4-60.2,347.6-93.1,34.9-10.4,67.9-20.1,100.8-29.6l-1.1-3.8c-32.8,9.4-65.8,19.2-100.8,29.6-111.1,33-226.1,67-347.3,93.1-43.4,9.3-86.8,20.1-128.8,30.4-147.6,36.5-287.1,71-427.5,48.7-134.7-21.4-258.8-91.7-373-164.6-247-157.7-545.1-233.7-839.5-213.8-260.7,17.6-517.4,108.8-765.6,196.9-33.4,11.9-68,24.1-101.9,36-251.9,87.2-576.8,171.2-855.5,46.4l-1.6,3.7c64.1,28.7,134.1,47.9,208.1,57.1,67.3,8.4,140.2,8.8,216.9,1.1,125.6-12.5,263.3-45.7,433.4-104.6,33.9-11.9,68.5-24.1,101.9-36,248-88.1,504.4-179.1,764.5-196.7,293.5-19.8,590.8,55.9,837,213.2,72.2,46.1,128.5,78,182.5,103.3,68.3,32,131.1,52.3,191.9,61.9h0ZM2608.5,1904.5c43.7,10.3,90.5,15.4,141.4,15.4,32.5,0,66.7-2.1,102.8-6.3,82.6-9.6,167.8-28.9,250.3-47.6,10.7-2.4,21.5-4.9,32.2-7.3,151-34,291-86.7,426.5-137.8l16.6-6.2-1.4-3.7-16.6,6.2c-135.3,51-275.2,103.7-425.9,137.6-10.7,2.4-21.5,4.9-32.2,7.3-164.2,37.3-333.9,75.8-492.7,38.5-126.5-29.7-244.5-106.2-348.7-173.7-128.8-83.5-271.1-144.8-422.7-182.3-151.1-37.4-305.1-49.5-457.9-36.1-239.4,21-473.7,104-700.4,184.3-56.8,20.1-115.6,40.9-173.4,60.4-234.2,78.2-579.3,166.3-871,28.2l-1.7,3.6c64.7,30.6,135.6,51.8,210.7,63.1,68.6,10.3,142.9,12.5,220.9,6.7,129.7-9.7,274.4-41.7,442.4-97.8,57.9-19.5,116.7-40.3,173.5-60.4,226.4-80.2,460.5-163.1,699.4-184.1,307.7-27,619.6,50.3,878.1,217.8,104.4,67.7,222.7,144.3,349.9,174.2h0ZM2647.5,1913.1c60.1,19.4,125,28.9,197.1,28.9,15.5,0,31.3-.4,47.5-1.3,72.8-3.9,152.5-16.6,250.9-39.9,155.1-36.7,301.3-101.8,437.8-165.4l-1.7-3.6c-136.3,63.4-282.3,128.4-437,165.1-151.6,35.9-328.8,65.5-493.4,12.4-99.1-31.9-189.4-92.4-276.7-151-15.6-10.5-31.8-21.3-47.7-31.8-134.2-88.3-282.9-152.6-441.9-191-78.3-18.9-158.6-31.3-238.6-36.7-80.7-5.4-161.8-3.9-241.2,4.6-222.9,23.9-439.7,101.5-649.3,176.5-75.5,27-153.6,55-230.9,80-190.5,61.5-359.7,92.2-509.9,92.2-141.9,0-266.7-27.4-376.6-82.2l-1.8,3.6c65.3,32.6,137,55.8,213.2,69,69.9,12.1,145.6,16.3,225,12.2,135.3-6.9,282.9-36.7,451.3-91,77.3-25.1,155.5-53,231-80.1,209.4-74.9,425.9-152.4,648.4-176.3,322.2-34.6,648.6,44.4,919.1,222.4,16,10.5,32.1,21.3,47.7,31.8,87.5,58.7,178.1,119.4,277.7,151.4h0ZM2915.9,1966.7c7.6.2,15.3.3,23,.3,68.6,0,139.9-9.1,212.1-27.2,70.3-17.6,142.9-43.4,222-79.1,77.6-35,153.3-75.9,210.5-107.6l-1.9-3.5c-154.6,85.7-287.2,150.3-431.5,186.3-118.3,29.5-294.4,49.9-462-20.9-78.2-33-148.5-83.8-216.5-132.9-27.2-19.7-55.4-40-83.7-59-69.3-46.4-143.9-87-221.6-120.6-76.9-33.3-157.5-60-239.5-79.3-82-19.4-166-31.6-249.7-36.3-84.5-4.8-169.3-1.9-252.1,8.6-210,26.5-412.7,100.4-608.7,172-90.7,33.1-184.5,67.3-277.9,96.4-368.7,114.9-672.2,112.2-902-8.2l-1.9,3.5c65.8,34.5,138.4,59.7,215.8,75,71.2,14.1,148.2,20,229,17.8,138.6-3.9,293.4-32.2,460.3-84.2,93.4-29.1,187.3-63.4,278.1-96.5,195.8-71.4,398.3-145.3,607.8-171.7,332-41.9,682,40.9,960.1,227,28.2,18.9,56.4,39.2,83.6,58.9,68.2,49.2,138.6,100.2,217.2,133.4,69.4,29.3,146.6,45.4,229.5,47.9h0Z"/>
        </g>
      </g>
    </g>
  </g>
</svg>