<svg xmlns="http://www.w3.org/2000/svg" xmlns:xlink="http://www.w3.org/1999/xlink" width="450" zoomAndPan="magnify" viewBox="0 0 337.5 97.5" height="130" preserveAspectRatio="xMidYMid meet" version="1.0"><defs><g/><clipPath id="2401855b43"><path d="M 20.644531 11.746094 L 108.3125 11.746094 L 108.3125 87.507812 L 20.644531 87.507812 Z M 20.644531 11.746094 " clip-rule="nonzero"/></clipPath><clipPath id="39b60076eb"><path d="M 20.644531 47.460938 L 20.644531 51.683594 C 20.644531 71.410156 36.636719 87.398438 56.363281 87.398438 L 72.347656 87.398438 C 92.070312 87.398438 108.0625 71.410156 108.0625 51.683594 L 108.0625 47.460938 C 108.0625 27.734375 92.070312 11.746094 72.347656 11.746094 L 56.363281 11.746094 C 36.636719 11.746094 20.644531 27.734375 20.644531 47.460938 Z M 20.644531 47.460938 " clip-rule="nonzero"/></clipPath></defs><g clip-path="url(#2401855b43)"><g clip-path="url(#39b60076eb)"><path fill="#5271ff" d="M 44.3125 22.085938 L 48.511719 28.957031 L 36.675781 49.570312 L 43.546875 61.785156 L 49.277344 72.089844 L 50.421875 73.617188 L 54.234375 80.488281 L 46.605469 80.488281 L 37.441406 65.21875 L 28.660156 49.570312 Z M 84.011719 77.050781 L 80.195312 70.183594 L 92.027344 49.570312 L 85.15625 37.738281 L 79.046875 27.050781 L 78.285156 25.523438 L 74.085938 18.648438 L 82.101562 18.648438 L 91.261719 34.300781 L 100.042969 49.570312 Z M 58.4375 87.359375 L 66.453125 87.359375 L 62.253906 80.488281 L 58.4375 73.617188 L 54.234375 66.746094 L 49.277344 58.347656 L 44.3125 49.570312 L 52.328125 35.828125 L 56.527344 42.699219 L 66.453125 59.875 L 74.085938 73.617188 L 78.285156 80.488281 L 82.101562 87.359375 L 86.300781 87.359375 L 87.0625 85.832031 L 88.210938 83.921875 L 96.988281 68.65625 L 108.058594 49.570312 L 96.988281 30.867188 L 86.300781 11.777344 L 62.253906 11.777344 L 66.453125 18.648438 L 70.269531 25.523438 L 74.085938 32.394531 L 79.046875 41.171875 L 84.011719 49.570312 L 76.375 63.3125 L 72.179688 56.441406 L 62.253906 39.265625 L 58.4375 32.394531 L 54.234375 25.523438 L 46.605469 11.777344 L 42.402344 11.777344 L 41.640625 13.304688 L 40.496094 15.214844 L 31.714844 30.867188 L 20.644531 49.570312 L 31.714844 68.65625 L 42.402344 87.359375 Z M 58.4375 87.359375 " fill-opacity="1" fill-rule="evenodd"/></g></g><g fill="#57de43" fill-opacity="1"><g transform="translate(116.238279, 57.868351)"><g><path d="M 4.03125 0 L 4.03125 -29.21875 L 11.078125 -36.28125 L 35.65625 -36.28125 L 42.703125 -29.21875 L 42.703125 0 L 35.65625 0 L 35.65625 -29.21875 L 11.078125 -29.21875 L 11.078125 0 Z M 4.03125 0 "/></g></g></g><g fill="#57de43" fill-opacity="1"><g transform="translate(167.382949, 57.868351)"><g><path d="M 12.28125 0 L 12.34375 -7.046875 L 35.65625 -7.046875 L 35.65625 -14.609375 L 11.078125 -14.609375 L 4.03125 -21.671875 L 4.03125 -36.28125 L 11.078125 -36.28125 L 11.078125 -21.671875 L 35.65625 -21.671875 L 35.65625 -36.28125 L 42.703125 -36.28125 L 42.703125 -7.046875 L 35.65625 0 Z M 12.28125 0 "/></g></g></g><g fill="#57de43" fill-opacity="1"><g transform="translate(218.527619, 57.868351)"><g><path d="M 19.203125 0 L 19.203125 -29.21875 L 4.03125 -29.21875 L 4.03125 -36.28125 L 41.4375 -36.28125 L 41.4375 -29.21875 L 26.265625 -29.21875 L 26.265625 0 Z M 19.203125 0 "/></g></g></g><g fill="#57de43" fill-opacity="1"><g transform="translate(268.412581, 57.868351)"><g><path d="M 4.03125 0 L 4.03125 -29.21875 L 11.078125 -36.28125 L 35.65625 -36.28125 L 42.703125 -29.21875 L 42.703125 0 L 35.65625 0 L 35.65625 -14.609375 L 11.078125 -14.609375 L 11.078125 0 Z M 11.078125 -21.671875 L 35.65625 -21.671875 L 35.65625 -29.21875 L 11.078125 -29.21875 Z M 11.078125 -21.671875 "/></g></g></g><g fill="#5271ff" fill-opacity="1"><g transform="translate(117.69185, 82.966295)"><g><path d="M 1.6875 0 L 1.6875 -9.421875 L 2.9375 -9.421875 L 3.109375 -8.046875 C 3.515625 -8.609375 4.007812 -9.015625 4.59375 -9.265625 C 5.1875 -9.523438 5.796875 -9.65625 6.421875 -9.65625 C 7.679688 -9.65625 8.660156 -9.253906 9.359375 -8.453125 C 10.066406 -7.660156 10.421875 -6.59375 10.421875 -5.25 L 10.421875 0 L 8.890625 0 L 8.890625 -5.109375 C 8.890625 -6.054688 8.648438 -6.804688 8.171875 -7.359375 C 7.703125 -7.921875 7.054688 -8.203125 6.234375 -8.203125 C 5.648438 -8.203125 5.128906 -8.0625 4.671875 -7.78125 C 4.222656 -7.5 3.867188 -7.097656 3.609375 -6.578125 C 3.347656 -6.054688 3.21875 -5.445312 3.21875 -4.75 L 3.21875 0 Z M 1.6875 0 "/></g></g></g><g fill="#5271ff" fill-opacity="1"><g transform="translate(129.982709, 82.966295)"><g><path d="M 5.9375 0.234375 C 4.957031 0.234375 4.09375 0.0234375 3.34375 -0.390625 C 2.59375 -0.816406 2.003906 -1.40625 1.578125 -2.15625 C 1.148438 -2.90625 0.9375 -3.757812 0.9375 -4.71875 C 0.9375 -5.6875 1.148438 -6.539062 1.578125 -7.28125 C 2.003906 -8.019531 2.59375 -8.597656 3.34375 -9.015625 C 4.09375 -9.441406 4.957031 -9.65625 5.9375 -9.65625 C 6.914062 -9.65625 7.78125 -9.441406 8.53125 -9.015625 C 9.28125 -8.597656 9.867188 -8.019531 10.296875 -7.28125 C 10.722656 -6.539062 10.9375 -5.6875 10.9375 -4.71875 C 10.9375 -3.757812 10.722656 -2.90625 10.296875 -2.15625 C 9.867188 -1.40625 9.28125 -0.816406 8.53125 -0.390625 C 7.78125 0.0234375 6.914062 0.234375 5.9375 0.234375 Z M 2.46875 -4.71875 C 2.46875 -4.03125 2.613281 -3.421875 2.90625 -2.890625 C 3.207031 -2.367188 3.617188 -1.960938 4.140625 -1.671875 C 4.660156 -1.378906 5.257812 -1.234375 5.9375 -1.234375 C 6.613281 -1.234375 7.210938 -1.378906 7.734375 -1.671875 C 8.253906 -1.960938 8.660156 -2.367188 8.953125 -2.890625 C 9.253906 -3.421875 9.40625 -4.03125 9.40625 -4.71875 C 9.40625 -5.40625 9.253906 -6.007812 8.953125 -6.53125 C 8.660156 -7.050781 8.253906 -7.457031 7.734375 -7.75 C 7.210938 -8.050781 6.613281 -8.203125 5.9375 -8.203125 C 5.257812 -8.203125 4.660156 -8.050781 4.140625 -7.75 C 3.617188 -7.457031 3.207031 -7.050781 2.90625 -6.53125 C 2.613281 -6.007812 2.46875 -5.40625 2.46875 -4.71875 Z M 2.46875 -4.71875 "/></g></g></g><g fill="#5271ff" fill-opacity="1"><g transform="translate(142.219111, 82.966295)"><g><path d="M 3.6875 0 L 0.3125 -9.421875 L 1.921875 -9.421875 L 3.4375 -5.15625 L 4.453125 -2.265625 L 5.5625 -5.15625 L 7.171875 -9.421875 L 8.5625 -9.421875 L 11.328125 -2.28125 L 12.328125 -5.15625 L 13.859375 -9.421875 L 15.453125 -9.421875 L 12.078125 0 L 10.625 0 L 9.109375 -3.890625 L 7.875 -7.171875 L 5.15625 0 Z M 3.6875 0 "/></g></g></g><g fill="#5271ff" fill-opacity="1"><g transform="translate(158.340638, 82.966295)"><g/></g></g><g fill="#5271ff" fill-opacity="1"><g transform="translate(163.206197, 82.966295)"><g><path d="M 1.359375 3.625 L 1.359375 2.203125 L 2.28125 2.203125 C 2.894531 2.203125 3.335938 2.113281 3.609375 1.9375 C 3.890625 1.757812 4.128906 1.410156 4.328125 0.890625 L 4.75 -0.21875 L 0.296875 -9.421875 L 2 -9.421875 L 4.125 -4.96875 L 5.5 -2.046875 L 6.640625 -4.96875 L 8.40625 -9.421875 L 10.015625 -9.421875 L 5.703125 1.46875 C 5.484375 2.039062 5.226562 2.484375 4.9375 2.796875 C 4.65625 3.109375 4.316406 3.320312 3.921875 3.4375 C 3.523438 3.5625 3.03125 3.625 2.4375 3.625 Z M 1.359375 3.625 "/></g></g></g><g fill="#5271ff" fill-opacity="1"><g transform="translate(173.881288, 82.966295)"><g><path d="M 5.9375 0.234375 C 4.957031 0.234375 4.09375 0.0234375 3.34375 -0.390625 C 2.59375 -0.816406 2.003906 -1.40625 1.578125 -2.15625 C 1.148438 -2.90625 0.9375 -3.757812 0.9375 -4.71875 C 0.9375 -5.6875 1.148438 -6.539062 1.578125 -7.28125 C 2.003906 -8.019531 2.59375 -8.597656 3.34375 -9.015625 C 4.09375 -9.441406 4.957031 -9.65625 5.9375 -9.65625 C 6.914062 -9.65625 7.78125 -9.441406 8.53125 -9.015625 C 9.28125 -8.597656 9.867188 -8.019531 10.296875 -7.28125 C 10.722656 -6.539062 10.9375 -5.6875 10.9375 -4.71875 C 10.9375 -3.757812 10.722656 -2.90625 10.296875 -2.15625 C 9.867188 -1.40625 9.28125 -0.816406 8.53125 -0.390625 C 7.78125 0.0234375 6.914062 0.234375 5.9375 0.234375 Z M 2.46875 -4.71875 C 2.46875 -4.03125 2.613281 -3.421875 2.90625 -2.890625 C 3.207031 -2.367188 3.617188 -1.960938 4.140625 -1.671875 C 4.660156 -1.378906 5.257812 -1.234375 5.9375 -1.234375 C 6.613281 -1.234375 7.210938 -1.378906 7.734375 -1.671875 C 8.253906 -1.960938 8.660156 -2.367188 8.953125 -2.890625 C 9.253906 -3.421875 9.40625 -4.03125 9.40625 -4.71875 C 9.40625 -5.40625 9.253906 -6.007812 8.953125 -6.53125 C 8.660156 -7.050781 8.253906 -7.457031 7.734375 -7.75 C 7.210938 -8.050781 6.613281 -8.203125 5.9375 -8.203125 C 5.257812 -8.203125 4.660156 -8.050781 4.140625 -7.75 C 3.617188 -7.457031 3.207031 -7.050781 2.90625 -6.53125 C 2.613281 -6.007812 2.46875 -5.40625 2.46875 -4.71875 Z M 2.46875 -4.71875 "/></g></g></g><g fill="#5271ff" fill-opacity="1"><g transform="translate(186.11769, 82.966295)"><g><path d="M 5.453125 0.234375 C 4.210938 0.234375 3.242188 -0.160156 2.546875 -0.953125 C 1.847656 -1.753906 1.5 -2.828125 1.5 -4.171875 L 1.5 -9.421875 L 3.03125 -9.421875 L 3.03125 -4.328125 C 3.03125 -3.378906 3.265625 -2.625 3.734375 -2.0625 C 4.203125 -1.507812 4.835938 -1.234375 5.640625 -1.234375 C 6.523438 -1.234375 7.242188 -1.546875 7.796875 -2.171875 C 8.347656 -2.804688 8.625 -3.640625 8.625 -4.671875 L 8.625 -9.421875 L 10.15625 -9.421875 L 10.15625 0 L 8.890625 0 L 8.734375 -1.375 C 8.316406 -0.820312 7.820312 -0.414062 7.25 -0.15625 C 6.675781 0.101562 6.078125 0.234375 5.453125 0.234375 Z M 5.453125 0.234375 "/></g></g></g><g fill="#5271ff" fill-opacity="1"><g transform="translate(198.317781, 82.966295)"><g/></g></g><g fill="#5271ff" fill-opacity="1"><g transform="translate(203.183341, 82.966295)"><g><path d="M 5.75 0 C 4.707031 0 3.898438 -0.296875 3.328125 -0.890625 C 2.753906 -1.484375 2.46875 -2.316406 2.46875 -3.390625 L 2.46875 -8.03125 L 0.484375 -8.03125 L 0.484375 -9.421875 L 1.4375 -9.421875 C 1.875 -9.421875 2.175781 -9.492188 2.34375 -9.640625 C 2.507812 -9.785156 2.617188 -10.070312 2.671875 -10.5 L 2.8125 -11.765625 L 4 -11.765625 L 4 -9.421875 L 7.046875 -9.421875 L 7.046875 -8.03125 L 4 -8.03125 L 4 -3.46875 C 4 -2.132812 4.609375 -1.46875 5.828125 -1.46875 L 7.171875 -1.46875 L 7.171875 0 Z M 5.75 0 "/></g></g></g><g fill="#5271ff" fill-opacity="1"><g transform="translate(211.607231, 82.966295)"><g><path d="M 4.78125 0.140625 C 3.632812 0.140625 2.738281 -0.113281 2.09375 -0.625 C 1.457031 -1.132812 1.140625 -1.832031 1.140625 -2.71875 C 1.140625 -3.582031 1.4375 -4.265625 2.03125 -4.765625 C 2.625 -5.273438 3.410156 -5.53125 4.390625 -5.53125 L 8.25 -5.53125 L 8.25 -5.875 C 8.25 -6.613281 8.015625 -7.191406 7.546875 -7.609375 C 7.085938 -8.035156 6.460938 -8.25 5.671875 -8.25 C 5.054688 -8.25 4.523438 -8.109375 4.078125 -7.828125 C 3.628906 -7.554688 3.328125 -7.191406 3.171875 -6.734375 L 1.640625 -6.734375 C 1.835938 -7.640625 2.296875 -8.351562 3.015625 -8.875 C 3.742188 -9.394531 4.617188 -9.65625 5.640625 -9.65625 C 6.460938 -9.65625 7.179688 -9.5 7.796875 -9.1875 C 8.421875 -8.882812 8.90625 -8.457031 9.25 -7.90625 C 9.59375 -7.351562 9.765625 -6.710938 9.765625 -5.984375 L 9.765625 0 L 8.515625 0 L 8.359375 -1.3125 C 7.492188 -0.34375 6.300781 0.140625 4.78125 0.140625 Z M 2.671875 -2.734375 C 2.671875 -2.273438 2.863281 -1.90625 3.25 -1.625 C 3.632812 -1.351562 4.160156 -1.21875 4.828125 -1.21875 C 5.484375 -1.21875 6.0625 -1.34375 6.5625 -1.59375 C 7.070312 -1.851562 7.476562 -2.207031 7.78125 -2.65625 C 8.09375 -3.101562 8.253906 -3.613281 8.265625 -4.1875 L 4.453125 -4.1875 C 3.929688 -4.1875 3.503906 -4.054688 3.171875 -3.796875 C 2.835938 -3.535156 2.671875 -3.179688 2.671875 -2.734375 Z M 2.671875 -2.734375 "/></g></g></g><g fill="#5271ff" fill-opacity="1"><g transform="translate(223.226369, 82.966295)"><g><path d="M 1.6875 0 L 1.6875 -13.4375 L 3.21875 -13.4375 L 3.21875 -5.484375 L 4.390625 -5.484375 C 5.148438 -5.484375 5.734375 -5.613281 6.140625 -5.875 C 6.554688 -6.132812 6.898438 -6.644531 7.171875 -7.40625 L 7.875 -9.421875 L 9.515625 -9.421875 L 8.5625 -6.84375 C 8.175781 -5.800781 7.660156 -5.078125 7.015625 -4.671875 L 9.953125 0 L 8.140625 0 L 5.53125 -4.15625 C 5.351562 -4.125 5.164062 -4.097656 4.96875 -4.078125 C 4.769531 -4.066406 4.5625 -4.0625 4.34375 -4.0625 L 3.21875 -4.0625 L 3.21875 0 Z M 1.6875 0 "/></g></g></g><g fill="#5271ff" fill-opacity="1"><g transform="translate(234.173774, 82.966295)"><g><path d="M 5.78125 0.234375 C 4.832031 0.234375 3.992188 0.0234375 3.265625 -0.390625 C 2.535156 -0.804688 1.960938 -1.390625 1.546875 -2.140625 C 1.140625 -2.890625 0.9375 -3.75 0.9375 -4.71875 C 0.9375 -5.6875 1.140625 -6.539062 1.546875 -7.28125 C 1.960938 -8.03125 2.535156 -8.613281 3.265625 -9.03125 C 4.003906 -9.445312 4.847656 -9.65625 5.796875 -9.65625 C 6.796875 -9.65625 7.664062 -9.421875 8.40625 -8.953125 C 9.144531 -8.484375 9.707031 -7.832031 10.09375 -7 C 10.488281 -6.164062 10.671875 -5.203125 10.640625 -4.109375 L 2.484375 -4.109375 C 2.609375 -3.222656 2.96875 -2.515625 3.5625 -1.984375 C 4.15625 -1.460938 4.898438 -1.203125 5.796875 -1.203125 C 6.410156 -1.203125 6.972656 -1.332031 7.484375 -1.59375 C 7.992188 -1.863281 8.390625 -2.242188 8.671875 -2.734375 L 10.40625 -2.734375 C 10.03125 -1.816406 9.429688 -1.09375 8.609375 -0.5625 C 7.785156 -0.03125 6.84375 0.234375 5.78125 0.234375 Z M 2.5 -5.453125 L 9.109375 -5.453125 C 8.953125 -6.304688 8.570312 -6.976562 7.96875 -7.46875 C 7.375 -7.96875 6.648438 -8.21875 5.796875 -8.21875 C 4.921875 -8.21875 4.1875 -7.960938 3.59375 -7.453125 C 3 -6.953125 2.632812 -6.285156 2.5 -5.453125 Z M 2.5 -5.453125 "/></g></g></g><g fill="#5271ff" fill-opacity="1"><g transform="translate(246.083383, 82.966295)"><g/></g></g><g fill="#5271ff" fill-opacity="1"><g transform="translate(250.948942, 82.966295)"><g><path d="M 4.78125 0.140625 C 3.632812 0.140625 2.738281 -0.113281 2.09375 -0.625 C 1.457031 -1.132812 1.140625 -1.832031 1.140625 -2.71875 C 1.140625 -3.582031 1.4375 -4.265625 2.03125 -4.765625 C 2.625 -5.273438 3.410156 -5.53125 4.390625 -5.53125 L 8.25 -5.53125 L 8.25 -5.875 C 8.25 -6.613281 8.015625 -7.191406 7.546875 -7.609375 C 7.085938 -8.035156 6.460938 -8.25 5.671875 -8.25 C 5.054688 -8.25 4.523438 -8.109375 4.078125 -7.828125 C 3.628906 -7.554688 3.328125 -7.191406 3.171875 -6.734375 L 1.640625 -6.734375 C 1.835938 -7.640625 2.296875 -8.351562 3.015625 -8.875 C 3.742188 -9.394531 4.617188 -9.65625 5.640625 -9.65625 C 6.460938 -9.65625 7.179688 -9.5 7.796875 -9.1875 C 8.421875 -8.882812 8.90625 -8.457031 9.25 -7.90625 C 9.59375 -7.351562 9.765625 -6.710938 9.765625 -5.984375 L 9.765625 0 L 8.515625 0 L 8.359375 -1.3125 C 7.492188 -0.34375 6.300781 0.140625 4.78125 0.140625 Z M 2.671875 -2.734375 C 2.671875 -2.273438 2.863281 -1.90625 3.25 -1.625 C 3.632812 -1.351562 4.160156 -1.21875 4.828125 -1.21875 C 5.484375 -1.21875 6.0625 -1.34375 6.5625 -1.59375 C 7.070312 -1.851562 7.476562 -2.207031 7.78125 -2.65625 C 8.09375 -3.101562 8.253906 -3.613281 8.265625 -4.1875 L 4.453125 -4.1875 C 3.929688 -4.1875 3.503906 -4.054688 3.171875 -3.796875 C 2.835938 -3.535156 2.671875 -3.179688 2.671875 -2.734375 Z M 2.671875 -2.734375 "/></g></g></g><g fill="#5271ff" fill-opacity="1"><g transform="translate(262.56808, 82.966295)"><g><path d="M 5.796875 0.234375 C 4.847656 0.234375 4.007812 0.0234375 3.28125 -0.390625 C 2.5625 -0.816406 1.988281 -1.40625 1.5625 -2.15625 C 1.144531 -2.90625 0.9375 -3.757812 0.9375 -4.71875 C 0.9375 -5.675781 1.144531 -6.523438 1.5625 -7.265625 C 1.988281 -8.015625 2.5625 -8.597656 3.28125 -9.015625 C 4.007812 -9.441406 4.847656 -9.65625 5.796875 -9.65625 C 6.578125 -9.65625 7.296875 -9.503906 7.953125 -9.203125 C 8.609375 -8.910156 9.160156 -8.5 9.609375 -7.96875 C 10.054688 -7.445312 10.359375 -6.832031 10.515625 -6.125 L 8.96875 -6.125 C 8.6875 -6.769531 8.265625 -7.273438 7.703125 -7.640625 C 7.140625 -8.015625 6.503906 -8.203125 5.796875 -8.203125 C 5.148438 -8.203125 4.578125 -8.050781 4.078125 -7.75 C 3.578125 -7.457031 3.179688 -7.046875 2.890625 -6.515625 C 2.609375 -5.992188 2.46875 -5.394531 2.46875 -4.71875 C 2.46875 -4.039062 2.609375 -3.4375 2.890625 -2.90625 C 3.179688 -2.382812 3.578125 -1.972656 4.078125 -1.671875 C 4.578125 -1.378906 5.148438 -1.234375 5.796875 -1.234375 C 6.554688 -1.234375 7.222656 -1.4375 7.796875 -1.84375 C 8.367188 -2.25 8.769531 -2.789062 9 -3.46875 L 10.625 -3.46875 C 10.3125 -2.332031 9.722656 -1.429688 8.859375 -0.765625 C 8.003906 -0.0976562 6.984375 0.234375 5.796875 0.234375 Z M 5.796875 0.234375 "/></g></g></g><g fill="#5271ff" fill-opacity="1"><g transform="translate(274.441388, 82.966295)"><g><path d="M 5.75 0 C 4.707031 0 3.898438 -0.296875 3.328125 -0.890625 C 2.753906 -1.484375 2.46875 -2.316406 2.46875 -3.390625 L 2.46875 -8.03125 L 0.484375 -8.03125 L 0.484375 -9.421875 L 1.4375 -9.421875 C 1.875 -9.421875 2.175781 -9.492188 2.34375 -9.640625 C 2.507812 -9.785156 2.617188 -10.070312 2.671875 -10.5 L 2.8125 -11.765625 L 4 -11.765625 L 4 -9.421875 L 7.046875 -9.421875 L 7.046875 -8.03125 L 4 -8.03125 L 4 -3.46875 C 4 -2.132812 4.609375 -1.46875 5.828125 -1.46875 L 7.171875 -1.46875 L 7.171875 0 Z M 5.75 0 "/></g></g></g><g fill="#5271ff" fill-opacity="1"><g transform="translate(282.865279, 82.966295)"><g><path d="M 1.6875 0 L 1.6875 -9.421875 L 3.21875 -9.421875 L 3.21875 0 Z M 1.21875 -12.171875 C 1.21875 -12.515625 1.328125 -12.796875 1.546875 -13.015625 C 1.773438 -13.242188 2.078125 -13.359375 2.453125 -13.359375 C 2.828125 -13.359375 3.125 -13.242188 3.34375 -13.015625 C 3.5625 -12.796875 3.671875 -12.515625 3.671875 -12.171875 C 3.671875 -11.828125 3.5625 -11.539062 3.34375 -11.3125 C 3.125 -11.09375 2.828125 -10.984375 2.453125 -10.984375 C 2.078125 -10.984375 1.773438 -11.09375 1.546875 -11.3125 C 1.328125 -11.539062 1.21875 -11.828125 1.21875 -12.171875 Z M 1.21875 -12.171875 "/></g></g></g><g fill="#5271ff" fill-opacity="1"><g transform="translate(288.130244, 82.966295)"><g><path d="M 5.9375 0.234375 C 4.957031 0.234375 4.09375 0.0234375 3.34375 -0.390625 C 2.59375 -0.816406 2.003906 -1.40625 1.578125 -2.15625 C 1.148438 -2.90625 0.9375 -3.757812 0.9375 -4.71875 C 0.9375 -5.6875 1.148438 -6.539062 1.578125 -7.28125 C 2.003906 -8.019531 2.59375 -8.597656 3.34375 -9.015625 C 4.09375 -9.441406 4.957031 -9.65625 5.9375 -9.65625 C 6.914062 -9.65625 7.78125 -9.441406 8.53125 -9.015625 C 9.28125 -8.597656 9.867188 -8.019531 10.296875 -7.28125 C 10.722656 -6.539062 10.9375 -5.6875 10.9375 -4.71875 C 10.9375 -3.757812 10.722656 -2.90625 10.296875 -2.15625 C 9.867188 -1.40625 9.28125 -0.816406 8.53125 -0.390625 C 7.78125 0.0234375 6.914062 0.234375 5.9375 0.234375 Z M 2.46875 -4.71875 C 2.46875 -4.03125 2.613281 -3.421875 2.90625 -2.890625 C 3.207031 -2.367188 3.617188 -1.960938 4.140625 -1.671875 C 4.660156 -1.378906 5.257812 -1.234375 5.9375 -1.234375 C 6.613281 -1.234375 7.210938 -1.378906 7.734375 -1.671875 C 8.253906 -1.960938 8.660156 -2.367188 8.953125 -2.890625 C 9.253906 -3.421875 9.40625 -4.03125 9.40625 -4.71875 C 9.40625 -5.40625 9.253906 -6.007812 8.953125 -6.53125 C 8.660156 -7.050781 8.253906 -7.457031 7.734375 -7.75 C 7.210938 -8.050781 6.613281 -8.203125 5.9375 -8.203125 C 5.257812 -8.203125 4.660156 -8.050781 4.140625 -7.75 C 3.617188 -7.457031 3.207031 -7.050781 2.90625 -6.53125 C 2.613281 -6.007812 2.46875 -5.40625 2.46875 -4.71875 Z M 2.46875 -4.71875 "/></g></g></g><g fill="#5271ff" fill-opacity="1"><g transform="translate(300.366646, 82.966295)"><g><path d="M 1.6875 0 L 1.6875 -9.421875 L 2.9375 -9.421875 L 3.109375 -8.046875 C 3.515625 -8.609375 4.007812 -9.015625 4.59375 -9.265625 C 5.1875 -9.523438 5.796875 -9.65625 6.421875 -9.65625 C 7.679688 -9.65625 8.660156 -9.253906 9.359375 -8.453125 C 10.066406 -7.660156 10.421875 -6.59375 10.421875 -5.25 L 10.421875 0 L 8.890625 0 L 8.890625 -5.109375 C 8.890625 -6.054688 8.648438 -6.804688 8.171875 -7.359375 C 7.703125 -7.921875 7.054688 -8.203125 6.234375 -8.203125 C 5.648438 -8.203125 5.128906 -8.0625 4.671875 -7.78125 C 4.222656 -7.5 3.867188 -7.097656 3.609375 -6.578125 C 3.347656 -6.054688 3.21875 -5.445312 3.21875 -4.75 L 3.21875 0 Z M 1.6875 0 "/></g></g></g></svg>